<?xml version="1.0" encoding="UTF-8"?>
<svg id="Layer_1" data-name="Layer 1" xmlns="http://www.w3.org/2000/svg" viewBox="0 0 110.45 47.09">
  <defs>
    <style>
      .cls-1 {
        fill: #aac1b0;
      }

      .cls-2 {
        fill: none;
        stroke: #aac1b0;
        stroke-miterlimit: 10;
        stroke-width: 4px;
      }
    </style>
  </defs>
  <path class="cls-2" d="M74.92,45.09H35.53c-5.91,0-10.74-4.83-10.74-10.74V12.86c0-2.95,1.21-5.64,3.16-7.59s4.63-3.16,7.59-3.16h39.39c5.91,0,10.74,4.83,10.74,10.74v21.49c0,5.91-4.83,10.74-10.74,10.74Z"/>
  <path class="cls-2" d="M81.05,4.06l-24.39,18.47c-.86,.65-2.03,.68-2.92,.08L27.94,5.28"/>
  <path class="cls-2" d="M85.67,18.47l22.56-14.41s1.61,6.12-3.76,12.39c-5.37,6.27-4.92,4.03-4.92,4.03,0,0-1.34,4.92-5.82,6.71s-6.34,0-6.34,0l-1.72-8.72Z"/>
  <circle class="cls-1" cx="99.54" cy="20.47" r="2.24"/>
  <path class="cls-2" d="M24.79,17.58L2.23,3.16s-1.61,6.12,3.76,12.39,4.92,4.03,4.92,4.03c0,0,1.34,4.92,5.82,6.71,4.48,1.79,6.34,0,6.34,0l1.72-8.72Z"/>
  <circle class="cls-1" cx="10.91" cy="19.58" r="2.24"/>
</svg>