<?xml version="1.0" encoding="UTF-8"?>
<svg id="Layer_1" data-name="Layer 1" xmlns="http://www.w3.org/2000/svg" viewBox="0 0 516.5 252.24">
  <defs>
    <style>
      .cls-1 {
        font-size: 27.34px;
      }

      .cls-1, .cls-2 {
        fill: #414d00;
        font-family: matcha, matcha;
      }

      .cls-2 {
        font-size: 52.55px;
      }

      .cls-3 {
        letter-spacing: -.03em;
      }

      .cls-4, .cls-5, .cls-6, .cls-7, .cls-8, .cls-9, .cls-10 {
        fill: none;
        stroke-miterlimit: 10;
      }

      .cls-4, .cls-7, .cls-9, .cls-10 {
        stroke: #d6e245;
      }

      .cls-4, .cls-9, .cls-10 {
        stroke-width: 2px;
      }

      .cls-11 {
        letter-spacing: 0em;
      }

      .cls-5 {
        stroke: #eab9c6;
      }

      .cls-6 {
        stroke: #c17489;
      }

      .cls-8 {
        stroke: #f7e2f1;
      }

      .cls-12 {
        letter-spacing: -.1em;
      }

      .cls-13 {
        letter-spacing: -.05em;
      }

      .cls-9 {
        stroke-dasharray: 0 0 11.99 11.99;
      }

      .cls-14 {
        letter-spacing: 0em;
      }

      .cls-15 {
        letter-spacing: -.03em;
      }

      .cls-16 {
        letter-spacing: -.03em;
      }

      .cls-17 {
        letter-spacing: -.02em;
      }

      .cls-18 {
        letter-spacing: -.02em;
      }

      .cls-10 {
        stroke-dasharray: 0 0 12.33 12.33;
      }
    </style>
  </defs>
  <circle class="cls-4" cx="373.66" cy="124.12" r="93.83"/>
  <circle class="cls-9" cx="373.66" cy="124.12" r="76.34"/>
  <circle class="cls-6" cx="469.88" cy="170.25" r="44.13"/>
  <circle class="cls-7" cx="493.93" cy="152.72" r="22.06"/>
  <circle class="cls-7" cx="31.37" cy="69.85" r="23.18"/>
  <circle class="cls-5" cx="12.88" cy="79.74" r="11.02"/>
  <circle class="cls-10" cx="93.27" cy="178.98" r="47.11"/>
  <path class="cls-7" d="M414.18,226.09l-239.89-8.14s-35.29,1.6-33.04,5.73,33.22,5.44,33.22,5.44l239.7-3.04Z"/>
  <ellipse class="cls-7" cx="164.34" cy="223.57" rx="9.76" ry="2.52"/>
  <path class="cls-8" d="M451.72,52.93s32.22,28.16-3.04,60.82-130.42,30.97-161.96,6.76c-22.52-17.3-37.58-46.95-44.34-62.48-5.52-12.67-13.47-24.17-23.71-33.44C206.22,13.32,182.92,.13,156.64,.51c-42.66,.61-64.76,19.76-87.84,80.02-23.09,60.25-30.62,100.8-50.12,87.28s-25.5-36.41-7.12-39.61c18.38-3.19,12.38,33.97,0,60.44-12.25,26.19-1.55,76.65,94.17,59.69,1.68-.3,3.36-.56,5.05-.79,7.63-1.01,35.35-5.92,53.18-25.68"/>
  <text class="cls-2" transform="translate(34.37 134.87) scale(.8 1)"><tspan x="0" y="0">I</tspan><tspan class="cls-13" x="12.98" y="0">n</tspan><tspan class="cls-3" x="39.31" y="0">t</tspan><tspan x="56.07" y="0">erd</tspan><tspan class="cls-17" x="134.1" y="0">i</tspan><tspan x="145.87" y="0">s</tspan><tspan class="cls-17" x="169.46" y="0">c</tspan><tspan class="cls-15" x="191.85" y="0">i</tspan><tspan class="cls-17" x="202.78" y="0">p</tspan><tspan x="229.53" y="0">li</tspan><tspan class="cls-17" x="254.85" y="0">n</tspan><tspan x="282.91" y="0">a</tspan><tspan class="cls-18" x="310.71" y="0">r</tspan><tspan x="335.67" y="0">y A</tspan><tspan class="cls-17" x="413.65" y="0">rt</tspan><tspan class="cls-11" x="456.27" y="0">ist</tspan></text>
  <text class="cls-1" transform="translate(118.43 79.74)"><tspan x="0" y="0">RU</tspan><tspan class="cls-12" x="35.32" y="0">B</tspan><tspan class="cls-14" x="49.62" y="0">Y </tspan><tspan class="cls-16" x="74.66" y="0">L</tspan><tspan class="cls-14" x="90.38" y="0">OU</tspan><tspan class="cls-16" x="128.67" y="0">R</tspan><tspan x="145.16" y="0">O IS AN</tspan></text>
</svg>