<?xml version="1.0" encoding="UTF-8"?>
<svg id="Layer_1" data-name="Layer 1" xmlns="http://www.w3.org/2000/svg" viewBox="0 0 115 108">
  <defs>
    <style>
      .cls-1 {
        fill: #fff;
        stroke: #000;
        stroke-miterlimit: 10;
        stroke-width: 8px;
      }
    </style>
  </defs>
  <rect class="cls-1" x="4" y="4" width="107" height="100" rx="20.74" ry="20.74"/>
  <g id="H3MTIS.tif">
    <g>
      <path d="M63.77,45.92c.51-.36,.73-.45,.85-.61,5.39-6.97,12.59-7.92,20.5-5.89,6.13,1.57,9.13,6.15,10.41,12.04,.72,3.28,.95,6.6,.94,9.95-.02,8.2-.05,16.41,.03,24.61,.02,1.74-.39,2.45-2.26,2.38-3.56-.13-7.14-.12-10.71,0-1.75,.06-2.17-.58-2.15-2.24,.08-7.37,.04-14.74,.03-22.1,0-2.28-.09-4.56-.73-6.77-1.02-3.54-3.06-5.27-6.4-5.48-4.04-.26-7.31,1.45-8.68,4.57-.86,1.98-1.1,4.09-1.1,6.23,0,7.75-.07,15.5,.05,23.24,.03,2.05-.62,2.62-2.61,2.53-3.56-.15-7.14-.09-10.71,0-1.49,.03-1.99-.49-1.98-1.97,.04-14.89,.04-29.78,0-44.66,0-1.64,.6-2.06,2.14-2.02,3.49,.1,6.99,.1,10.48,0,1.52-.04,2.04,.49,1.92,1.97-.1,1.28-.02,2.57-.02,4.22Z"/>
      <path d="M39.88,63.9c0,7.37-.04,14.74,.03,22.11,.02,1.75-.47,2.45-2.32,2.39-3.64-.12-7.29-.1-10.94,0-1.64,.04-2.07-.6-2.06-2.14,.04-14.82,.04-29.63,0-44.45,0-1.54,.4-2.14,2.05-2.09,3.72,.12,7.45,.11,11.17,0,1.62-.05,2.1,.5,2.09,2.08-.06,7.37-.03,14.74-.03,22.11Z"/>
      <path d="M40.95,24.26c.04,4.83-3.74,8.69-8.57,8.77-4.89,.08-8.83-3.83-8.83-8.76,0-4.74,3.94-8.68,8.7-8.7,4.76-.01,8.67,3.89,8.71,8.68Z"/>
    </g>
  </g>
</svg>