<?xml version="1.0" encoding="UTF-8"?>
<svg id="Layer_1" data-name="Layer 1" xmlns="http://www.w3.org/2000/svg" viewBox="0 0 500 300">
  <defs>
    <style>
      .cls-1, .cls-2, .cls-3, .cls-4 {
        fill: none;
      }

      .cls-5 {
        fill: #414d00;
      }

      .cls-2 {
        stroke-miterlimit: 10;
        stroke-width: 2px;
      }

      .cls-2, .cls-3, .cls-4 {
        stroke: #414d00;
      }

      .cls-3 {
        stroke-miterlimit: 10;
      }

      .cls-4 {
        stroke-dasharray: 0 0 12 2;
        stroke-miterlimit: 7;
        stroke-width: 2px;
      }
    </style>
  </defs>
  <g id="Group_8" data-name="Group 8">
    <g id="Group_4" data-name="Group 4">
      <path id="Path_8" data-name="Path 8" class="cls-5" d="M324.87,181.81c-2.66,6.44-5.32,11.16-7.98,14.16-2.37,2.79-5.4,4.94-8.82,6.25-3.22,1.18-8.82,1.77-16.8,1.76h-7.6c-6.71,0-10.7-.26-11.97-.77-.7-.27-1.35-.67-1.9-1.19-.37-.35-.68-.75-.93-1.19-.02-.04-.04-.11-.06-.16-.37,.14-.81,.2-1.2,.33-.93,3.47-2.54,6.72-4.72,9.57h55.62l8.9-28.23-2.54-.54Z"/>
    </g>
    <g id="eNBonm.tif">
      <g id="Group_5" data-name="Group 5">
        <path id="Path_9" data-name="Path 9" class="cls-3" d="M215.39,142.38c15.05-.01,27.24-12.22,27.22-27.27-.01-15.05-12.22-27.24-27.27-27.22s-27.24,12.22-27.22,27.27c0,.03,0,.07,0,.1,.1,15,12.27,27.1,27.27,27.12Z"/>
        <path id="Path_10" data-name="Path 10" class="cls-5" d="M215.39,142.38c-15.05,0-27.24-12.21-27.23-27.26,0-15.05,12.21-27.24,27.26-27.23,15.04,0,27.23,12.2,27.23,27.25-.03,15.04-12.22,27.22-27.26,27.24Zm-.01-2.2c13.83,0,25.04-11.22,25.03-25.06,0-13.83-11.22-25.04-25.06-25.03-13.8,0-24.99,11.17-25.03,24.97-.02,13.85,11.19,25.1,25.05,25.12,0,0,0,0,0,0Z"/>
        <path id="Path_11" data-name="Path 11" class="cls-5" d="M192.47,115.12c0-12.65,10.26-22.9,22.9-22.9,12.65,0,22.9,10.26,22.9,22.9,0,12.65-10.26,22.9-22.9,22.9-.09,0-.18,0-.28,0-12.53-.17-22.61-10.37-22.62-22.9Zm22.91-20.68c-11.43,0-20.69,9.28-20.68,20.71,0,11.43,9.28,20.69,20.71,20.68,11.42,0,20.68-9.27,20.68-20.69-.02-11.43-9.28-20.68-20.71-20.69Z"/>
        <path id="Path_12" data-name="Path 12" class="cls-5" d="M220.47,124.43c-2.33,0-4.21-1.88-4.21-4.21s1.88-4.21,4.21-4.21,4.21,1.88,4.21,4.21c0,0,0,0,0,.01,0,2.32-1.89,4.2-4.21,4.2Zm-.02-1.69c1.39,0,2.52-1.12,2.52-2.52s-1.12-2.52-2.52-2.52c-1.39,0-2.52,1.12-2.52,2.52,0,1.39,1.13,2.52,2.52,2.52h0Z"/>
        <path id="Path_13" data-name="Path 13" class="cls-5" d="M210.32,105.91c2.33,0,4.22,1.87,4.23,4.2,0,2.33-1.87,4.22-4.2,4.23-2.33,0-4.22-1.87-4.23-4.2,0,0,0-.01,0-.02,0-2.32,1.88-4.2,4.2-4.21Zm2.54,4.19c0-1.39-1.14-2.52-2.53-2.52-1.39,0-2.52,1.14-2.52,2.53,0,1.39,1.14,2.52,2.53,2.52,0,0,0,0,0,0,1.39-.01,2.51-1.14,2.51-2.53Z"/>
        <path id="Path_14" data-name="Path 14" class="cls-5" d="M220.45,105.91c2.33,0,4.22,1.88,4.22,4.21,0,2.33-1.88,4.22-4.21,4.22s-4.22-1.88-4.22-4.21c0,0,0-.01,0-.02,0-2.32,1.89-4.2,4.21-4.2Zm0,6.73c1.39,0,2.52-1.13,2.52-2.52s-1.13-2.52-2.52-2.52-2.52,1.13-2.52,2.52c0,1.39,1.13,2.52,2.52,2.52Z"/>
        <path id="Path_15" data-name="Path 15" class="cls-5" d="M210.34,124.43c-2.33-.01-4.2-1.91-4.19-4.23,.01-2.33,1.91-4.2,4.23-4.19,2.33,.01,4.2,1.91,4.19,4.23,0,0,0,0,0,.01-.02,2.32-1.91,4.19-4.23,4.18Zm2.53-4.2c0-1.39-1.12-2.53-2.51-2.54-1.39,0-2.53,1.12-2.54,2.51,0,1.39,1.12,2.53,2.51,2.54,0,0,0,0,0,0,1.39,0,2.52-1.12,2.53-2.51Z"/>
      </g>
    </g>
    <path id="Path_17" data-name="Path 17" class="cls-5" d="M266.86,194.28s.53,6.84,4.16,8.61l-3.29,4.37-2.03-1.19,1.17-11.78Z"/>
    <circle id="Ellipse_10" data-name="Ellipse 10" class="cls-4" cx="246.3" cy="150.37" r="97.5"/>
    <g id="Group_7" data-name="Group 7">
      <path id="Path_18" data-name="Path 18" class="cls-5" d="M188.16,115.14c0-11.36,7.05-21.53,17.68-25.52h-30.4l-.26,4.32h3.46c3.18,0,6.18,.78,7.78,2.59,1.16,1.28,1.1,8.32,1.1,13.6v54.29c0,4.79-.43,7.83-1.3,9.11-1.53,2.32-4.07,3.48-7.62,3.47h-3.16v2.29h36.01v-2.29h-3.29c-2.65,.2-5.24-.8-7.07-2.73-1.15-1.28-1.73-4.56-1.73-9.85v-24.42c.66,.04,1.3,.07,1.92,.09s1.2,.03,1.73,.03c.45,0,.97,0,1.52-.02-9.95-4.33-16.38-14.14-16.38-24.99Z"/>
      <path id="Path_19" data-name="Path 19" class="cls-5" d="M247.88,173.54c-2.85-1.82-6.26-5.5-10.22-11.03l-15.17-21.07c-4.28,1.16-8.78,1.25-13.11,.27l27.22,37.6h22.44v-2.29c-3.94-.29-7.75-1.47-11.16-3.47Z"/>
      <path id="Path_20" data-name="Path 20" class="cls-5" d="M204.53,140.13c1.56,.68,3.19,1.21,4.86,1.58l-1.23-1.69c-1.38,.05-2.58,.09-3.63,.11Z"/>
    </g>
    <path class="cls-2" d="M261.56,220.1l18.85-85.67,.81-3.69c.56-2.56-.95-5.13-3.47-5.86h0c-2.63-.77-5.36,.87-5.92,3.56l-.86,4.19-17.67,85.97,8.26,1.5Z"/>
    <line class="cls-2" x1="280.3" y1="134.87" x2="269.79" y2="133.52"/>
    <polygon class="cls-2" points="255 229.45 253.3 221.6 260.3 222.87 255 229.45"/>
    <polygon class="cls-5" points="254.15 225.53 257.4 226.48 255 229.45 254.15 225.53"/>
    <line class="cls-3" x1="273.8" y1="134.37" x2="255.77" y2="219.05"/>
    <line class="cls-3" x1="259.04" y1="219.05" x2="276.8" y2="134.37"/>
  </g>
  <rect class="cls-1" width="500" height="300"/>
</svg>