<?xml version="1.0" encoding="UTF-8"?>
<svg id="Layer_1" data-name="Layer 1" xmlns="http://www.w3.org/2000/svg" viewBox="0 0 189.99 189.99">
  <defs>
    <style>
      .cls-1 {
        fill: #414d00;
      }

      .cls-2 {
        stroke-miterlimit: 10;
        stroke-width: 2px;
      }

      .cls-2, .cls-3, .cls-4, .cls-5 {
        fill: none;
        stroke: #414d00;
      }

      .cls-3, .cls-4 {
        stroke-miterlimit: 10;
      }

      .cls-3, .cls-5 {
        stroke-width: 2px;
      }

      .cls-5 {
        stroke-dasharray: 0 0 12 2;
        stroke-miterlimit: 7;
      }
    </style>
  </defs>
  <g id="Group_8" data-name="Group 8">
    <g id="Group_4" data-name="Group 4">
      <path id="Path_8" data-name="Path 8" class="cls-1" d="M170.74,125.3c-2.56,6.21-5.13,10.76-7.69,13.65-2.28,2.69-5.21,4.76-8.5,6.03-3.11,1.14-8.51,1.7-16.2,1.7h-7.32c-6.47,0-10.31-.25-11.54-.74-.68-.26-1.3-.65-1.83-1.14-.35-.34-.66-.72-.9-1.15-.02-.04-.04-.11-.06-.15-.36,.13-.78,.19-1.15,.31-.9,3.34-2.44,6.48-4.55,9.23h53.62l8.58-27.22-2.45-.52Z"/>
    </g>
    <g id="eNBonm.tif">
      <g id="Group_5" data-name="Group 5">
        <path id="Path_9" data-name="Path 9" class="cls-4" d="M65.19,87.3c14.51-.01,26.26-11.78,26.24-26.29-.01-14.51-11.78-26.26-26.29-26.24-14.51,.01-26.26,11.78-26.24,26.29,0,.03,0,.07,0,.1,.09,14.46,11.83,26.13,26.29,26.14Z"/>
        <path id="Path_10" data-name="Path 10" class="cls-1" d="M65.19,87.3c-14.51,0-26.26-11.77-26.25-26.28,0-14.51,11.77-26.26,26.28-26.25,14.5,0,26.25,11.77,26.25,26.27-.03,14.5-11.78,26.25-26.28,26.26Zm-.01-2.12c13.33,0,24.14-10.82,24.13-24.15,0-13.33-10.82-24.14-24.15-24.13-13.3,0-24.09,10.77-24.13,24.07-.02,13.35,10.79,24.2,24.15,24.21,0,0,0,0,0,0Z"/>
        <path id="Path_11" data-name="Path 11" class="cls-1" d="M43.1,61.02c0-12.19,9.89-22.08,22.08-22.07,12.19,0,22.08,9.89,22.07,22.08,0,12.19-9.89,22.08-22.08,22.07-.09,0-.18,0-.27,0-12.08-.16-21.79-10-21.81-22.08Zm22.09-19.94c-11.02,0-19.94,8.95-19.94,19.97,0,11.02,8.95,19.94,19.97,19.94,11.01,0,19.94-8.94,19.94-19.95-.02-11.02-8.95-19.94-19.97-19.95Z"/>
        <path id="Path_12" data-name="Path 12" class="cls-1" d="M70.09,69.99c-2.24,0-4.06-1.82-4.06-4.06s1.82-4.06,4.06-4.06,4.06,1.82,4.06,4.06c0,0,0,0,0,.01,0,2.24-1.82,4.05-4.06,4.05Zm-.02-1.63c1.34,0,2.43-1.08,2.43-2.43s-1.08-2.43-2.43-2.43c-1.34,0-2.43,1.08-2.43,2.43,0,1.34,1.09,2.43,2.43,2.43h0Z"/>
        <path id="Path_13" data-name="Path 13" class="cls-1" d="M60.31,52.13c2.24,0,4.07,1.81,4.07,4.05,0,2.24-1.81,4.07-4.05,4.07-2.24,0-4.07-1.81-4.07-4.05,0,0,0-.01,0-.02,0-2.24,1.81-4.05,4.05-4.06Zm2.45,4.04c0-1.34-1.1-2.43-2.44-2.43-1.34,0-2.43,1.1-2.43,2.44,0,1.34,1.1,2.43,2.44,2.43,0,0,0,0,0,0,1.34-.01,2.42-1.1,2.42-2.44Z"/>
        <path id="Path_14" data-name="Path 14" class="cls-1" d="M70.07,52.13c2.24,0,4.06,1.82,4.07,4.06,0,2.24-1.82,4.06-4.06,4.07s-4.06-1.82-4.07-4.06c0,0,0-.01,0-.02,0-2.24,1.82-4.05,4.06-4.05Zm0,6.49c1.34,0,2.43-1.09,2.43-2.43s-1.09-2.43-2.43-2.43-2.43,1.09-2.43,2.43c0,1.34,1.09,2.42,2.43,2.43Z"/>
        <path id="Path_15" data-name="Path 15" class="cls-1" d="M60.32,69.99c-2.24-.01-4.05-1.84-4.04-4.08,.01-2.24,1.84-4.05,4.08-4.04,2.24,.01,4.05,1.84,4.04,4.08,0,0,0,0,0,.01-.02,2.24-1.84,4.04-4.08,4.03Zm2.44-4.05c0-1.34-1.08-2.44-2.42-2.45-1.34,0-2.44,1.08-2.45,2.42,0,1.34,1.08,2.44,2.42,2.45,0,0,0,0,0,0,1.34,0,2.43-1.08,2.44-2.42Z"/>
      </g>
    </g>
    <g id="Group_6" data-name="Group 6">
      <path id="Path_16" data-name="Path 16" class="cls-3" d="M110.69,169.49l9.59-93.13c.2-1.71-.1-3.44-.87-4.98-1.02-1.97-2.78-3.57-5.41,.04-1.08,1.51-1.67,3.32-1.68,5.18l-1.63,92.89Z"/>
      <ellipse id="Ellipse_9" data-name="Ellipse 9" class="cls-2" cx="116.58" cy="77.16" rx="4.17" ry="1.25" transform="translate(32.76 189.05) rotate(-86.66)"/>
    </g>
    <path id="Path_17" data-name="Path 17" class="cls-1" d="M114.82,137.33s.51,6.59,4.01,8.3l-3.17,4.21-1.96-1.15,1.12-11.36Z"/>
    <circle id="Ellipse_10" data-name="Ellipse 10" class="cls-5" cx="94.99" cy="94.99" r="93.99"/>
    <g id="Group_7" data-name="Group 7">
      <path id="Path_18" data-name="Path 18" class="cls-1" d="M38.94,61.04c0-10.95,6.79-20.75,17.05-24.6H26.68l-.25,4.17h3.33c3.06,0,5.95,.75,7.5,2.5,1.12,1.23,1.06,8.02,1.06,13.11v52.34c0,4.62-.42,7.55-1.26,8.78-1.47,2.24-3.92,3.35-7.34,3.35h-3.05v2.21H61.39v-2.21h-3.17c-2.55,.19-5.05-.77-6.81-2.63-1.11-1.23-1.67-4.4-1.67-9.5v-23.54c.64,.04,1.26,.07,1.85,.09s1.15,.03,1.67,.03c.44,0,.94,0,1.46-.02-9.59-4.17-15.79-13.63-15.79-24.09Z"/>
      <path id="Path_19" data-name="Path 19" class="cls-1" d="M96.52,117.34c-2.75-1.76-6.03-5.3-9.86-10.64l-14.62-20.31c-4.13,1.11-8.47,1.2-12.64,.26l26.24,36.25h21.63v-2.21c-3.79-.28-7.48-1.42-10.76-3.35Z"/>
      <path id="Path_20" data-name="Path 20" class="cls-1" d="M54.73,85.12c1.51,.66,3.08,1.17,4.68,1.53l-1.18-1.63c-1.33,.05-2.49,.09-3.5,.1Z"/>
    </g>
  </g>
</svg>