<?xml version="1.0" encoding="UTF-8"?>
<svg id="Layer_1" data-name="Layer 1" xmlns="http://www.w3.org/2000/svg" viewBox="0 0 62.99 68.26">
  <defs>
    <style>
      .cls-1 {
        fill: #ffc3ff;
      }
    </style>
  </defs>
  <g id="KtWnBq.tif">
    <g>
      <path class="cls-1" d="M61.84,66.28c-.25-.02-.5-.06-.75-.1-4.83-.74-8.5-3.31-11.44-7.11-3.46-4.47-6.65-9.13-9.98-13.7-1.18-1.61-2.33-3.24-3.53-4.9,9.01-2.79,14.63-10.43,14.95-19.05C51.61,7.64,38.78-3.14,24.71,.83c-1.94,.55-3.83,.86-5.82,.8-.86-.03-1.73,0-2.59,0-2.37-.01-4.74-.02-7.11-.03-2.64,.15-5.27,.21-7.92,.09-.1,.47-.26,.93-.5,1.34,0,.23,0,.46-.04,.68-.2,1.04,.19,1.36,1.25,1.29,1.65-.11,3.31-.04,4.91,.51,1.67,.57,2.67,1.61,2.71,3.46,.04,1.55,.2,3.1,.2,4.64,.02,14.64,.02,29.28,0,43.92,0,1.26-.09,2.52-.22,3.78-.3,2.93-2.09,4.71-5.02,4.99-.93,.09-1.87,.12-2.81,.08-.74-.03-.92,.24-.9,.93,.02,.61,.04,.95,.84,.95,8.36-.03,16.72-.03,25.09,0,.77,0,.84-.28,.87-.92,.03-.79-.26-1.02-.99-.95-.54,.05-1.08,0-1.62,.02-3.66,.09-5.8-1.84-6.15-5.45-.36-3.64-.14-7.28-.18-10.92-.04-3.39-.01-6.78,0-10.17,0-.29-.24-.83,.42-.75,1.16,.15,2.36-.08,3.49,.52,.75,.4,1.6,.7,2.44,.84,1.02,.17,1.63,.73,2.2,1.52,6.16,8.55,12.35,17.09,18.52,25.63,.23,.32,.41,.62,.91,.62,5.19-.02,10.38-.01,15.57-.02,.22,0,.48,.11,.62-.25,.33-.88-.09-1.61-1.03-1.7h-.01ZM12,20.58C12,10.4,20.31,2.09,30.49,2.08c10.19,0,18.49,8.29,18.49,18.48s-8.27,18.57-18.52,18.53c-10.22-.04-18.47-8.3-18.47-18.51h.01Z"/>
      <path class="cls-1" d="M30.49,2.09c10.19,0,18.49,8.29,18.49,18.48s-8.27,18.57-18.52,18.53c-10.22-.04-18.47-8.3-18.47-18.51S20.3,2.1,30.48,2.09h.01Zm0,35.51c9.46,0,17.01-7.6,16.99-17.07-.02-9.37-7.62-16.98-16.99-16.99-9.41-.02-17.02,7.67-17.01,17.21,0,9.25,7.7,16.87,17.01,16.85Z"/>
      <path class="cls-1" d="M30.5,37.6c-9.31,0-17-7.6-17.01-16.85C13.49,11.22,21.09,3.52,30.5,3.54c9.36,.02,16.97,7.62,16.99,16.99,.02,9.46-7.53,17.05-16.99,17.07Zm.05-1.73c8.44,0,15.23-6.83,15.22-15.28,0-8.47-6.84-15.28-15.35-15.3-8.32-.02-15.2,6.94-15.18,15.36,.02,8.4,6.88,15.22,15.31,15.21h0Z"/>
      <path class="cls-1" d="M34.27,21.2c1.74,0,3.17,1.4,3.2,3.12,.03,1.75-1.47,3.24-3.23,3.22-1.72-.02-3.15-1.48-3.15-3.2s1.44-3.14,3.18-3.14Zm1.79,3.14c0-1-.76-1.76-1.76-1.77-1.03-.02-1.84,.79-1.83,1.82,0,.98,.8,1.78,1.76,1.8,1.01,.02,1.83-.81,1.82-1.84h.01Z"/>
      <path class="cls-1" d="M34.31,20.04c-1.74,.02-3.18-1.36-3.24-3.09-.05-1.75,1.42-3.25,3.19-3.25s3.17,1.43,3.19,3.16c.02,1.7-1.42,3.16-3.15,3.18h.01Zm-.06-4.99c-1,0-1.81,.86-1.78,1.89,.03,.98,.82,1.75,1.8,1.74,1.02,0,1.81-.84,1.78-1.87-.03-.98-.84-1.77-1.8-1.76Z"/>
      <path class="cls-1" d="M26.74,20.03c-1.78-.02-3.12-1.38-3.12-3.16s1.38-3.17,3.13-3.17,3.22,1.46,3.19,3.23c-.03,1.76-1.43,3.11-3.2,3.1Zm1.83-3.22c-.02-.97-.83-1.75-1.81-1.75s-1.83,.84-1.8,1.87c.03,.97,.84,1.76,1.81,1.76,1.03,0,1.82-.83,1.8-1.87h0Z"/>
      <path class="cls-1" d="M26.75,21.2c1.77-.02,3.17,1.34,3.2,3.09,.03,1.79-1.4,3.26-3.17,3.25-1.74,0-3.13-1.41-3.14-3.17,0-1.77,1.35-3.15,3.11-3.17Zm0,1.36c-.99,0-1.78,.78-1.8,1.75-.02,1.01,.82,1.88,1.82,1.87,.98,0,1.83-.9,1.8-1.9-.02-.97-.82-1.73-1.82-1.72Z"/>
    </g>
  </g>
  <path class="cls-1" d="M21.13,1.55H.11l-.11,3.61s8.29-.64,8.91,1.66,.9,7.72,.9,7.72c0,0,11.32-12.99,11.32-12.99Z"/>
</svg>