<?xml version="1.0" encoding="UTF-8"?>
<svg id="Layer_1" data-name="Layer 1" xmlns="http://www.w3.org/2000/svg" viewBox="0 0 104 104">
  <defs>
    <style>
      .cls-1 {
        fill: #fbfcfd;
      }

      .cls-2 {
        fill: #116855;
      }
    </style>
  </defs>
  <circle class="cls-2" cx="52" cy="52" r="52"/>
  <g id="MmQKLz.tif">
    <path class="cls-1" d="M81.62,51.79c0,6.25,0,12.49,0,18.74,0,5.82-4.72,10.53-10.53,10.53-12.49,0-24.98,0-37.46,0-5.8,0-10.5-4.7-10.5-10.5,0-12.52,0-25.03,0-37.55,0-5.78,4.69-10.47,10.47-10.47,12.51,0,25.02,0,37.52,0,5.8,0,10.51,4.7,10.51,10.51,0,6.25,0,12.49,0,18.74Zm-27.26-3.61c-.05-.02-.1-.04-.15-.07,0-.99-.02-1.98,0-2.97,.02-.59-.2-.74-1-.65-2.15,.23-4.31,.14-6.46-.02-.72-.05-.84,.17-.84,.73,.01,8.84,.01,17.67,0,26.51,0,.63,.23,.78,.8,.77,2.35-.02,4.69-.03,7.04,0,.65,0,.82-.2,.82-.83-.02-4.09-.03-8.18,0-12.27,0-1.25,0-2.51,.25-3.76,.41-1.96,1.3-3.53,3.4-3.99,2.87-.62,5.18,.18,5.83,3.45,.21,1.05,.27,2.11,.27,3.18,0,4.48,.01,8.96,0,13.44,0,.59,.17,.79,.76,.79,2.26,0,4.52-.16,6.77,0,.89,.06,1.12-.12,1.12-.89-.03-5.11,0-10.22-.02-15.32,0-1.17-.06-2.35-.23-3.51-.47-3.26-1.54-6.13-4.42-7.72-1.48-.81-3.09-1.11-4.74-1.21-3.26-.19-6.13,.69-8.34,3.23-.31,.36-.57,.75-.86,1.13Zm-22.56,10.26c0,4.43,.01,8.86-.01,13.29,0,.41,.33,.74,.74,.73,2.42-.03,4.84-.03,7.26,0,.55,0,.69-.2,.69-.72-.01-8.83-.01-17.67,0-26.5,0-.62-.21-.77-.8-.76-2.32,.03-4.65,.04-6.97,0-.72-.01-.94,.15-.94,.91,.04,4.36,.02,8.71,.02,13.07Zm9.35-22.79c0-2.77-2.19-4.99-4.94-5.03s-5.07,2.26-5.09,4.99,2.23,5.07,4.99,5.07c2.78,0,5.02-2.24,5.03-5.03Z"/>
  </g>
  <rect class="cls-1" x="27" y="28" width="50" height="50"/>
  <circle class="cls-2" cx="53.5" cy="52.5" r="14.5"/>
  <circle class="cls-2" cx="68.72" cy="34.15" r="4.85"/>
</svg>