<?xml version="1.0" encoding="UTF-8"?>
<svg id="Layer_1" data-name="Layer 1" xmlns="http://www.w3.org/2000/svg" viewBox="0 0 104 107">
  <defs>
    <style>
      .cls-1 {
        fill: #116855;
      }

      .cls-2 {
        fill: #fff;
      }

      .cls-2, .cls-3 {
        stroke: #f9fff6;
        stroke-miterlimit: 10;
      }

      .cls-3 {
        fill: #fefefe;
      }
    </style>
  </defs>
  <circle class="cls-1" cx="52" cy="53" r="52"/>
  <g id="TxpV9F.tif">
    <g>
      <path class="cls-2" d="M24.59,28.19c1.32-.2,2.65-.09,3.97-.09,11.42-.01,22.84,0,34.26,0,5.48,0,10.97,0,16.45,0,.21,0,.43-.05,.62,.09-.19,.19-.72-.23-.7,.38,.02,.6,.03,1.2,.05,1.8-.81,0-1.62,0-2.42,0,0-.55,0-1.09,0-1.64,0-.31-.07-.5-.43-.49-.62,.01-1.23,.01-1.85,0-.36,0-.44,.18-.43,.49,.01,.55,0,1.09,0,1.64-.81,0-1.62,0-2.42,0,0-.55,0-1.09,0-1.64,0-.31-.07-.5-.43-.49-.62,.01-1.23,.01-1.85,0-.36,0-.44,.18-.43,.49,.01,.55,0,1.09,0,1.64-.81,0-1.62,0-2.42,0,0-.56,0-1.13,0-1.69,0-.29-.1-.44-.41-.43-.68,0-1.36,0-2.05,0-.25,0-.43,.06-.34,.37,.17,.58,.04,1.17,.09,1.75-.64,0-1.28-.01-1.92,0-.36,0-.49-.12-.51-.49-.03-.53,.28-1.25-.16-1.54-.39-.25-1.06-.08-1.6-.09-.05,0-.1,0-.14,0-.59-.07-1-.02-.81,.78,.1,.43,.02,.9,.02,1.35-.81,0-1.62,0-2.42,0,.01-.45,0-.89,.11-1.33,.09-.33,.11-.77-.43-.78-.73-.02-1.47,0-2.2,0-.24,0-.36,.11-.28,.36,.18,.58,.05,1.18,.09,1.76-.81,0-1.62,0-2.42,0,0-.55,0-1.09,0-1.64,0-.31-.07-.5-.43-.49-.62,.01-1.23,.01-1.85,0-.36,0-.44,.18-.43,.49,.01,.55,0,1.09,0,1.64-.81,0-1.62,0-2.42,0,0-.05,0-.1,0-.14-.05-.63,.27-1.44-.14-1.85-.41-.41-1.22-.07-1.85-.14-.62-.07-.89,.08-.74,.78,.1,.43,.02,.9,.02,1.35-.81,0-1.62,0-2.42,0,0-.05,0-.1,0-.14-.05-.63,.28-1.44-.14-1.85-.41-.4-1.22-.07-1.85-.14-.63-.07-.89,.09-.73,.78,.1,.43,.02,.9,.02,1.35-.81,0-1.62,0-2.42,0,0-.55,0-1.09,0-1.64,0-.31-.07-.5-.43-.49-.62,.01-1.23,.01-1.85,0-.36,0-.44,.18-.43,.49,.01,.55,0,1.09,0,1.64-.81,0-1.62,0-2.42,0,0-.55,0-1.09,0-1.64,0-.31-.07-.5-.43-.49-.62,.01-1.23,.01-1.85,0-.36,0-.44,.18-.43,.49,.01,.55,0,1.09,0,1.64-.81,0-1.62,0-2.42,0,0-.37-.05-.75,.01-1.11,.12-.76-.15-1.12-.94-1.07Z"/>
      <path class="cls-2" d="M79.63,75.59c-1.08,.16-2.17,.07-3.25,.08-7.45,.02-14.9,.01-22.35,0-9.54,0-19.08,0-28.62,0-.18,0-.38,.05-.55-.08,.53,0,.74-.26,.67-.78-.04-.32,0-.65,0-.98,.81,0,1.62,0,2.42,0,0,.21,0,.43,0,.64,.01,1.2-.14,1.05,1.07,1.06,1.64,0,1.64,0,1.64-1.7,.81,0,1.62,0,2.42,0,0,.21,0,.43,0,.64,.01,1.2-.14,1.05,1.07,1.06,1.64,0,1.64,0,1.64-1.7,.81,0,1.62,0,2.42,0-.28,1.97,0,1.72,1.44,1.7,1.27-.02,1.27,0,1.27-1.7,.81,0,1.62,0,2.42,0-.28,1.97,0,1.72,1.44,1.7,1.27-.02,1.27,0,1.27-1.7,.81,0,1.62,0,2.42,0,0,.21,0,.43,0,.64,.01,1.2-.14,1.05,1.07,1.06,1.64,0,1.64,0,1.64-1.7,.81,0,1.62,0,2.42,0,0,.21,0,.43,0,.64,.01,1.2-.14,1.05,1.07,1.06,1.64,0,1.64,0,1.64-1.7,.81,0,1.62,0,2.42,0-.02,.33,.02,.67-.08,.98-.19,.61,.05,.78,.61,.72,.16-.02,.33,0,.49,0q1.68,0,1.68-1.7c.81,0,1.62,0,2.42,0,0,.16,.01,.33-.01,.49q-.19,1.2,1.04,1.2,1.68,0,1.68-1.7c.81,0,1.62,0,2.42,0,0,.21,0,.43,0,.64,.01,1.2-.14,1.05,1.07,1.06,1.64,0,1.64,0,1.64-1.7,.81,0,1.62,0,2.42,0,0,.21,0,.43,0,.64,.01,1.2-.14,1.05,1.07,1.06,1.64,0,1.64,0,1.64-1.7,.81,0,1.62,0,2.42,0-.05,.37-.09,.74-.15,1.11-.07,.42,.13,.61,.52,.65Z"/>
      <path class="cls-2" d="M18.53,35.07c-.3-3.31,2.45-6.69,5.57-6.85-.08,.08-.16,.24-.23,.24-1.08-.01-1.16,.67-1.05,1.49,.02,.14,0,.28,0,.42-.63,0-1.27,.02-1.9,0-.39-.01-.54,.14-.53,.53,.02,.63,0,1.26,0,1.9-.19,0-.38,0-.57,0-.94,0-.93,.01-1.01,.93-.04,.46-.05,.93-.28,1.35Z"/>
      <path class="cls-2" d="M80.39,28.22c2.54,.37,4.21,1.83,5.17,4.15,.3,.71,.5,1.47,.39,2.27-.21-.19-.25-.46-.28-.71-.16-1.15-.15-1.15-1.29-1.15,0-.56,0-1.13,0-1.69,0-.5-.24-.74-.73-.73-.56,0-1.13,0-1.69,0,0-.26-.04-.52,0-.77,.13-.71-.24-.97-.86-1.06-.27-.04-.58,.02-.72-.32Z"/>
      <path class="cls-3" d="M20.59,73.83c-.11-.04-.2-.1-.22-.23,0-.73,.01-1.46,.02-2.19h0c.81,0,1.62,0,2.42,0v2.42s0,0,0,0c-.74,0-1.48,0-2.22,0Z"/>
      <path class="cls-3" d="M84.12,73.61s-.07,.07-.1,.1c-.68,.16-1.37,.11-2.06,.12,0,0,0,0,0,0,0-.81,0-1.62,0-2.42,.81,0,1.62,0,2.42,0h0c0,.74,.08,1.5-.26,2.2Z"/>
      <path class="cls-3" d="M22.81,30.37c0-.14,.01-.28,0-.42-.1-.82-.03-1.5,1.05-1.49,.08,0,.16-.15,.23-.24,.16-.06,.33-.09,.5-.03,.78-.06,1.05,.31,.94,1.07-.06,.36,0,.74-.01,1.11,0,0,0,0,0,0-.9,0-1.81,0-2.71,0h0Z"/>
      <path class="cls-3" d="M80.39,28.22c.14,.34,.45,.28,.72,.32,.62,.09,.99,.35,.86,1.06-.05,.25,0,.51,0,.77h0c-.9,0-1.81,0-2.71,0h0c-.02-.6-.03-1.2-.05-1.8-.02-.61,.5-.18,.7-.38,.17-.06,.33-.03,.49,.03Z"/>
      <path class="cls-3" d="M18.53,66.28c-.07-.9-.07-1.8,0-2.71,.62,0,1.24,0,1.86,0,0,.9,0,1.81,0,2.71-.62,0-1.24,0-1.86,0Z"/>
      <path class="cls-3" d="M18.53,61.15c-.07-.9-.07-1.8,0-2.71,.62,0,1.24,0,1.86,0,0,.9,0,1.81,0,2.71-.62,0-1.24,0-1.86,0Z"/>
      <path class="cls-3" d="M18.53,45.76c-.07-.9-.07-1.8,0-2.71,.62,0,1.24,0,1.86,0,0,.9,0,1.81,0,2.71-.62,0-1.24,0-1.86,0Z"/>
      <path class="cls-3" d="M18.53,56.02c-.07-.9-.07-1.8,0-2.71,.62,0,1.24,0,1.86,0,0,.9,0,1.81,0,2.71-.62,0-1.24,0-1.86,0Z"/>
      <path class="cls-3" d="M18.53,50.89c-.07-.9-.07-1.8,0-2.71,.62,0,1.24,0,1.86,0,0,.9,0,1.81,0,2.71-.62,0-1.24,0-1.86,0Z"/>
      <path class="cls-3" d="M18.53,40.63c-.07-.9-.07-1.8,0-2.71,.62,0,1.24,0,1.86,0,0,.9,0,1.81,0,2.71-.62,0-1.24,0-1.86,0Z"/>
      <path class="cls-2" d="M20.39,48.18c-.62,0-1.24,0-1.86,0-.07-.81-.07-1.62,0-2.42,.62,0,1.24,0,1.86,0,0,0,0,0,0,0,0,.81,0,1.62,0,2.42h0Z"/>
      <path class="cls-2" d="M18.53,56.02c.62,0,1.24,0,1.86,0h0c0,.81,0,1.61,0,2.42h0c-.62,0-1.24,0-1.86,0-.07-.81-.07-1.62,0-2.42Z"/>
      <path class="cls-2" d="M18.53,61.15c.62,0,1.24,0,1.86,0h0c0,.81,0,1.61,0,2.42h0c-.62,0-1.24,0-1.86,0-.07-.81-.07-1.62,0-2.42Z"/>
      <path class="cls-2" d="M20.39,37.92c-.62,0-1.24,0-1.86,0-.07-.81-.07-1.62,0-2.42,.62,0,1.24,0,1.86,0,0,.81,0,1.62,0,2.42h0Z"/>
      <path class="cls-2" d="M18.53,50.89c.62,0,1.24,0,1.86,0h0c0,.81,0,1.61,0,2.42h0c-.62,0-1.24,0-1.86,0-.07-.81-.07-1.62,0-2.42Z"/>
      <path class="cls-2" d="M18.53,40.63c.62,0,1.24,0,1.86,0,0,0,0,0,0,0,0,.81,0,1.62,0,2.42h0c-.62,0-1.24,0-1.86,0-.07-.81-.07-1.62,0-2.42Z"/>
      <path class="cls-2" d="M18.53,66.28c.62,0,1.24,0,1.86,0h0c0,.81,0,1.61,0,2.42h0c-.62,0-1.24,0-1.86,0-.07-.81-.07-1.62,0-2.42Z"/>
      <path class="cls-3" d="M20.39,35.5c-.62,0-1.24,0-1.86,0,0-.14,0-.28,0-.42,.24-.42,.25-.9,.28-1.35,.08-.92,.07-.93,1.01-.93,.19,0,.38,0,.57,0,0,0,0,0,0,0,0,.9,0,1.81,0,2.71h0Z"/>
      <path class="cls-3" d="M79.63,75.59c-.4-.04-.59-.23-.52-.65,.06-.37,.1-.74,.15-1.11h0c.9,0,1.81,0,2.71,0,0,0,0,0,0,0-.01,.57,.15,1.2-.57,1.5-.1,.02-.19,.03-.29,.05-.31-.26-.5,0-.71,.17-.25,.07-.5,.12-.76,.05Z"/>
      <path class="cls-3" d="M18.53,68.7c.62,0,1.24,0,1.86,0,0,.9,0,1.81,0,2.71,0,0,0,0,0,0-.14,0-.28,0-.43,0-.96,0-1.06-.09-1.13-1.08-.03-.42,0-.85-.3-1.2,0-.14,0-.28,0-.42Z"/>
      <path class="cls-3" d="M85.95,63.57c.07,.9,.07,1.8,0,2.71-.52,0-1.05,0-1.57,0,0-.9,0-1.81,0-2.71h1.57Z"/>
      <path class="cls-3" d="M85.95,48.18c.07,.9,.07,1.8,0,2.71-.52,0-1.05,0-1.57,0,0-.9,0-1.81,0-2.71,.52,0,1.05,0,1.57,0Z"/>
      <path class="cls-3" d="M85.95,43.05c.07,.9,.07,1.8,0,2.71-.52,0-1.05,0-1.57,0,0-.9,0-1.81,0-2.71,.52,0,1.05,0,1.57,0Z"/>
      <path class="cls-3" d="M85.95,53.31c.07,.9,.07,1.8,0,2.71-.52,0-1.05,0-1.57,0,0-.9,0-1.81,0-2.71,.52,0,1.05,0,1.57,0Z"/>
      <path class="cls-3" d="M85.95,58.44c.07,.9,.07,1.8,0,2.71-.52,0-1.05,0-1.57,0,0-.9,0-1.81,0-2.71,.52,0,1.05,0,1.57,0Z"/>
      <path class="cls-3" d="M85.95,37.92c.07,.9,.07,1.8,0,2.71-.52,0-1.05,0-1.57,0,0-.9,0-1.81,0-2.71,.52,0,1.05,0,1.57,0Z"/>
      <path class="cls-3" d="M25.52,73.83c0,.33-.03,.66,0,.98,.06,.53-.14,.79-.67,.78-.26,.08-.51,.02-.76-.05-.1-.22-.28-.29-.51-.3-.61-.02-.89-.31-.78-.93,.03-.16,0-.33,0-.49,0,0,0,0,0,0,.9,0,1.81,0,2.71,0h0Z"/>
      <path class="cls-2" d="M84.38,66.28c.52,0,1.05,0,1.57,0,.07,.81,.07,1.62,0,2.42h-1.57s0,0,0,0c0-.81,0-1.62,0-2.42h0Z"/>
      <path class="cls-2" d="M84.38,45.76c.52,0,1.05,0,1.57,0,.07,.81,.07,1.62,0,2.42-.52,0-1.05,0-1.57,0,0,0,0,0,0,0,0-.81,0-1.62,0-2.42,0,0,0,0,0,0Z"/>
      <path class="cls-2" d="M85.95,37.92c-.52,0-1.05,0-1.57,0h0c0-.81,0-1.61,0-2.42,.52,0,1.05,0,1.57,0,.07,.81,.07,1.62,0,2.42Z"/>
      <path class="cls-2" d="M85.95,53.31c-.52,0-1.05,0-1.57,0h0v-2.42s0,0,0,0c.52,0,1.05,0,1.57,0,.07,.81,.07,1.62,0,2.42Z"/>
      <path class="cls-2" d="M84.38,40.63c.52,0,1.05,0,1.57,0,.07,.81,.07,1.62,0,2.42-.52,0-1.05,0-1.57,0,0,0,0,0,0,0,0-.81,0-1.62,0-2.42h0Z"/>
      <path class="cls-2" d="M84.38,61.15c.52,0,1.05,0,1.57,0,.07,.81,.07,1.62,0,2.42h-1.57s0,0,0,0c0-.81,0-1.62,0-2.42h0Z"/>
      <path class="cls-2" d="M85.95,58.44c-.52,0-1.05,0-1.57,0h0v-2.42s0,0,0,0c.52,0,1.05,0,1.57,0,.07,.81,.07,1.62,0,2.42Z"/>
      <path class="cls-3" d="M85.95,35.5c-.52,0-1.05,0-1.57,0,0,0,0,0,0,0v-2.71h0c1.14,0,1.13,0,1.29,1.15,.04,.25,.08,.52,.28,.71,.06,.28,.06,.57,0,.85Z"/>
      <path class="cls-3" d="M84.38,68.7h1.57c0,.14,0,.29,0,.43-.35,.31-.22,.74-.28,1.12-.17,1.16-.16,1.16-1.29,1.16,0,0,0,0,0,0,0-.9,0-1.81,0-2.71Z"/>
      <path class="cls-2" d="M18.53,69.13c.31,.35,.27,.78,.3,1.2,.07,1,.17,1.08,1.13,1.08,.14,0,.28,0,.43,0,0,.73-.01,1.46-.02,2.19-1.26-1.23-1.89-2.71-1.84-4.47Z"/>
      <path class="cls-2" d="M22.81,73.83c0,.16,.02,.33,0,.49-.1,.62,.18,.92,.78,.93,.23,0,.41,.07,.51,.3-1.38-.14-2.54-.73-3.51-1.72,.74,0,1.48,0,2.22,0Z"/>
      <path class="cls-2" d="M84.38,71.41c1.13,0,1.12,0,1.29-1.16,.06-.38-.07-.81,.28-1.12,.05,1.77-.6,3.24-1.83,4.48,.34-.7,.25-1.46,.26-2.2Z"/>
      <path class="cls-2" d="M81.38,75.33c.72-.3,.56-.93,.57-1.5,.69,0,1.38,.04,2.06-.12-.71,.81-1.6,1.33-2.63,1.62Z"/>
      <path class="cls-2" d="M80.39,75.55c.21-.18,.4-.43,.71-.17-.21,.18-.44,.23-.71,.17Z"/>
      <path class="cls-3" d="M58.73,30.37c0-.45,.08-.92-.02-1.35-.19-.8,.22-.85,.81-.78,.05,0,.09,0,.14,0,.54,.01,1.21-.16,1.6,.09,.45,.29,.13,1.01,.16,1.54,.02,.37,.15,.5,.51,.49,.64-.02,1.28,0,1.92,0h0c0,.63,.02,1.27,0,1.9-.01,.4,.14,.54,.53,.53,.73-.02,1.45,0,2.18,0,0,0,0,0,0,0,0,.23,0,.45,0,.68-.9,.06-1.8,.06-2.7,0,.06-.5-.23-.67-.67-.68-.59,0-1.17,0-1.76,0,0-.54-.03-1.09,0-1.63,.04-.61-.25-.8-.8-.79-.64,.01-1.28,0-1.92,0,0,0,0,0,0,0Z"/>
      <path class="cls-3" d="M53.59,30.37c-.04-.59,.09-1.18-.09-1.76-.08-.25,.04-.36,.28-.36,.73,0,1.47-.02,2.2,0,.54,.02,.52,.45,.43,.78-.12,.45-.1,.89-.11,1.33,0,0,0,0,0,0-.9,0-1.81,0-2.71,0h0Z"/>
      <path class="cls-3" d="M35.78,30.37c.81,0,1.62,0,2.42,0,0,0,0,0,0,0,0,.81,0,1.62,0,2.42-.81,0-1.62,0-2.42,0,0-.81,0-1.62,0-2.42h0Z"/>
      <path class="cls-3" d="M40.91,30.37c.81,0,1.62,0,2.42,0h0c0,.81,0,1.61,0,2.42-.81,0-1.62,0-2.42,0,0-.81,0-1.62,0-2.42h0Z"/>
      <path class="cls-3" d="M56.3,30.37c.81,0,1.62,0,2.42,0,0,0,0,0,0,0,0,.81,0,1.62,0,2.42-.81,0-1.62,0-2.42,0,0-.81,0-1.62,0-2.42h0Z"/>
      <path class="cls-3" d="M30.65,30.37c.81,0,1.62,0,2.42,0h0c0,.81,0,1.61,0,2.42-.81,0-1.62,0-2.42,0,0-.81,0-1.62,0-2.42h0Z"/>
      <path class="cls-3" d="M46.04,30.37c.81,0,1.62,0,2.42,0h0c0,.81,0,1.61,0,2.42-.81,0-1.62,0-2.42,0,0-.81,0-1.62,0-2.42h0Z"/>
      <path class="cls-3" d="M66.56,30.37h2.42s0,0,0,0c0,.81,0,1.62,0,2.42-.81,0-1.62,0-2.42,0,0,0,0,0,0,0,0-.81,0-1.62,0-2.42h0Z"/>
      <path class="cls-3" d="M25.52,30.37c.81,0,1.62,0,2.42,0h0c0,.81,0,1.61,0,2.42-.81,0-1.62,0-2.42,0,0-.81,0-1.62,0-2.42h0Z"/>
      <path class="cls-3" d="M71.69,30.37h2.42s0,0,0,0c0,.81,0,1.62,0,2.42-.81,0-1.62,0-2.42,0,0-.81,0-1.62,0-2.42h0Z"/>
      <path class="cls-3" d="M51.17,30.37c.81,0,1.62,0,2.42,0,0,0,0,0,0,0,0,.81,0,1.62,0,2.42-.81,0-1.62,0-2.42,0,0-.81,0-1.62,0-2.42h0Z"/>
      <path class="cls-3" d="M76.82,30.37c.81,0,1.62,0,2.42,0,0,0,0,0,0,0,0,.81,0,1.62,0,2.42-.81,0-1.62,0-2.42,0,0-.81,0-1.62,0-2.42h0Z"/>
      <path class="cls-3" d="M63.86,30.37c-.04-.58,.09-1.18-.09-1.75-.09-.31,.09-.37,.34-.37,.68,0,1.37,0,2.05,0,.31,0,.41,.14,.41,.43,0,.56,0,1.13,0,1.69,0,0,0,0,0,0-.9,0-1.81,0-2.71,0h0Z"/>
      <path class="cls-3" d="M43.33,30.37c0-.45,.08-.92-.02-1.35-.16-.7,.11-.86,.74-.78,.63,.07,1.44-.26,1.85,.14,.41,.41,.09,1.22,.14,1.85,0,.05,0,.09,0,.14,0,0,0,0,0,0-.9,0-1.81,0-2.71,0h0Z"/>
      <path class="cls-3" d="M38.2,30.37c0-.45,.08-.92-.02-1.35-.16-.7,.11-.86,.73-.78,.63,.07,1.44-.26,1.85,.14,.42,.41,.09,1.22,.14,1.85,0,.05,0,.09,0,.14,0,0,0,0,0,0-.9,0-1.81,0-2.71,0h0Z"/>
      <path class="cls-3" d="M68.99,30.37c0-.55,0-1.09,0-1.64,0-.31,.07-.5,.43-.49,.62,.01,1.23,.01,1.85,0,.36,0,.44,.18,.43,.49-.01,.55,0,1.09,0,1.64,0,0,0,0,0,0-.9,0-1.81,0-2.71,0h0Z"/>
      <path class="cls-3" d="M74.12,30.37c0-.55,0-1.09,0-1.64,0-.31,.07-.5,.43-.49,.62,.01,1.23,.01,1.85,0,.36,0,.44,.18,.43,.49,0,.55,0,1.09,0,1.64,0,0,0,0,0,0-.9,0-1.81,0-2.71,0h0Z"/>
      <path class="cls-3" d="M27.94,30.37c0-.55,0-1.09,0-1.64,0-.31,.07-.5,.43-.49,.62,.01,1.23,.01,1.85,0,.36,0,.44,.18,.43,.49-.01,.55,0,1.09,0,1.64,0,0,0,0,0,0-.9,0-1.81,0-2.71,0h0Z"/>
      <path class="cls-3" d="M33.07,30.37c0-.55,0-1.09,0-1.64,0-.31,.07-.5,.43-.49,.62,.01,1.23,.01,1.85,0,.36,0,.44,.18,.43,.49,0,.55,0,1.09,0,1.64,0,0,0,0,0,0-.9,0-1.81,0-2.71,0h0Z"/>
      <path class="cls-3" d="M48.46,30.37c0-.55,0-1.09,0-1.64,0-.31,.07-.5,.43-.49,.62,.01,1.23,.01,1.85,0,.36,0,.44,.18,.43,.49,0,.55,0,1.09,0,1.64,0,0,0,0,0,0-.9,0-1.81,0-2.71,0h0Z"/>
      <path class="cls-3" d="M63.86,73.83c-.81,0-1.62,0-2.42,0h0c0-.81,0-1.61,0-2.42,.81,0,1.62,0,2.42,0,0,.81,0,1.62,0,2.42h0Z"/>
      <path class="cls-3" d="M58.73,73.83c-.81,0-1.62,0-2.42,0h0c0-.81,0-1.61,0-2.42,.81,0,1.62,0,2.42,0,0,.81,0,1.62,0,2.42h0Z"/>
      <path class="cls-3" d="M53.59,73.83c-.81,0-1.62,0-2.42,0h0c0-.81,0-1.61,0-2.42,.81,0,1.62,0,2.42,0,0,.81,0,1.62,0,2.42h0Z"/>
      <path class="cls-3" d="M68.99,73.83c-.81,0-1.62,0-2.42,0h0c0-.81,0-1.61,0-2.42,.81,0,1.62,0,2.42,0,0,.81,0,1.62,0,2.42h0Z"/>
      <path class="cls-3" d="M74.12,73.83c-.81,0-1.62,0-2.42,0h0c0-.81,0-1.61,0-2.42,.81,0,1.62,0,2.42,0,0,.81,0,1.62,0,2.42h0Z"/>
      <path class="cls-3" d="M48.46,73.83c-.81,0-1.62,0-2.42,0h0c0-.81,0-1.61,0-2.42,.81,0,1.62,0,2.42,0,0,.81,0,1.62,0,2.42h0Z"/>
      <path class="cls-3" d="M79.25,73.83c-.81,0-1.62,0-2.42,0h0c0-.81,0-1.61,0-2.42,.81,0,1.62,0,2.42,0,0,.81,0,1.62,0,2.42h0Z"/>
      <path class="cls-3" d="M43.33,73.83h-2.42s0,0,0,0c0-.81,0-1.62,0-2.42,.81,0,1.62,0,2.42,0,0,.81,0,1.62,0,2.42,0,0,0,0,0,0Z"/>
      <path class="cls-3" d="M38.2,73.83h-2.42s0,0,0,0c0-.81,0-1.62,0-2.42,.81,0,1.62,0,2.42,0,0,.81,0,1.62,0,2.42h0Z"/>
      <path class="cls-3" d="M33.07,73.83h-2.42s0,0,0,0c0-.81,0-1.62,0-2.42,.81,0,1.62,0,2.42,0,0,.81,0,1.62,0,2.42h0Z"/>
      <path class="cls-3" d="M27.94,73.83c-.81,0-1.62,0-2.42,0,0,0,0,0,0,0,0-.81,0-1.62,0-2.42,.81,0,1.62,0,2.42,0,0,.81,0,1.62,0,2.42h0Z"/>
      <path class="cls-3" d="M66.56,73.83q0,1.7-1.68,1.7-1.23,0-1.04-1.2c.03-.16,0-.33,.01-.49,0,0,0,0,0,0,.9,0,1.81,0,2.71,0h0Z"/>
      <path class="cls-3" d="M40.91,73.83c0,1.7,0,1.68-1.27,1.7-1.44,.02-1.71,.27-1.44-1.7,0,0,0,0,0,0,.9,0,1.81,0,2.71,0h0Z"/>
      <path class="cls-3" d="M46.04,73.83c0,1.7,0,1.68-1.27,1.7-1.44,.02-1.71,.27-1.44-1.7,0,0,0,0,0,0,.9,0,1.81,0,2.71,0h0Z"/>
      <path class="cls-3" d="M61.43,73.83q0,1.7-1.68,1.7c-.16,0-.33-.01-.49,0-.56,.05-.79-.12-.61-.72,.09-.3,.06-.65,.08-.98,0,0,0,0,0,0,.9,0,1.81,0,2.71,0h0Z"/>
      <path class="cls-3" d="M76.82,73.83c0,1.7,0,1.7-1.64,1.7-1.21,0-1.06,.14-1.07-1.06,0-.21,0-.43,0-.64,0,0,0,0,0,0,.9,0,1.81,0,2.71,0h0Z"/>
      <path class="cls-3" d="M71.69,73.83c0,1.7,0,1.7-1.64,1.7-1.21,0-1.06,.14-1.07-1.06,0-.21,0-.43,0-.64,0,0,0,0,0,0,.9,0,1.81,0,2.71,0h0Z"/>
      <path class="cls-3" d="M35.78,73.83c0,1.7,0,1.7-1.64,1.7-1.21,0-1.06,.14-1.07-1.06,0-.21,0-.43,0-.64,0,0,0,0,0,0,.9,0,1.81,0,2.71,0h0Z"/>
      <path class="cls-3" d="M56.3,73.83c0,1.7,0,1.7-1.64,1.7-1.21,0-1.06,.14-1.07-1.06,0-.21,0-.43,0-.64,0,0,0,0,0,0,.9,0,1.81,0,2.71,0h0Z"/>
      <path class="cls-3" d="M51.17,73.83c0,1.7,0,1.7-1.64,1.7-1.21,0-1.06,.14-1.07-1.06,0-.21,0-.43,0-.64,0,0,0,0,0,0,.9,0,1.81,0,2.71,0h0Z"/>
      <path class="cls-3" d="M30.65,73.83c0,1.7,0,1.7-1.64,1.7-1.21,0-1.06,.14-1.07-1.06,0-.21,0-.43,0-.64,0,0,0,0,0,0,.9,0,1.81,0,2.71,0h0Z"/>
      <path class="cls-3" d="M20.39,32.79c0-.63,.02-1.27,0-1.9-.01-.39,.14-.54,.53-.53,.63,.02,1.26,0,1.9,0,0,0,0,0,0,0,0,.81,0,1.62,0,2.42-.81,0-1.62,0-2.42,0h0Z"/>
      <path class="cls-3" d="M81.95,30.37c.56,0,1.13,0,1.69,0,.5,0,.74,.24,.73,.73,0,.56,0,1.13,0,1.69,0,0,0,0,0,0-.81,0-1.62,0-2.42,0,0-.81,0-1.62,0-2.42h0Z"/>
      <path class="cls-2" d="M25.52,71.41c0,.81,0,1.62,0,2.42-.9,0-1.81,0-2.71,0,0-.81,0-1.62,0-2.42,0,0,0,0,0,0,.9,0,1.81,0,2.71,0h0Z"/>
      <path class="cls-2" d="M20.39,71.41c0-.9,0-1.81,0-2.71,0,0,0,0,0,0,.81,0,1.62,0,2.42,0h0c0,.9,0,1.8,0,2.71,0,0,0,0,0,0-.81,0-1.62,0-2.42,0Z"/>
      <path class="cls-2" d="M84.38,68.7c0,.9,0,1.81,0,2.71-.81,0-1.62,0-2.42,0,0,0,0,0,0,0,0-.9,0-1.81,0-2.71,.81,0,1.62,0,2.42,0h0Z"/>
      <path class="cls-2" d="M79.25,73.83c0-.81,0-1.62,0-2.42h0c.9,0,1.81,0,2.71,0h0c0,.81,0,1.61,0,2.42-.9,0-1.81,0-2.71,0Z"/>
      <path class="cls-2" d="M22.81,32.79c0-.81,0-1.62,0-2.42,.9,0,1.81,0,2.71,0,0,.81,0,1.62,0,2.42,0,0,0,0,0,0-.9,0-1.81,0-2.71,0h0Z"/>
      <path class="cls-2" d="M81.96,30.37c0,.81,0,1.62,0,2.42,0,0,0,0,0,0-.9,0-1.81,0-2.71,0h0c0-.81,0-1.61,0-2.42,.9,0,1.81,0,2.71,0Z"/>
      <path class="cls-2" d="M20.39,66.28c0-.9,0-1.81,0-2.71,0,0,0,0,0,0,.81,0,1.62,0,2.42,0,0,0,0,0,0,0,0,.9,0,1.81,0,2.71h0c-.81,0-1.62,0-2.42,0h0Z"/>
      <path class="cls-2" d="M20.39,61.15c0-.9,0-1.81,0-2.71,0,0,0,0,0,0,.81,0,1.62,0,2.42,0,0,0,0,0,0,0,0,.9,0,1.81,0,2.71h0c-.81,0-1.62,0-2.42,0h0Z"/>
      <path class="cls-2" d="M20.39,45.76c0-.9,0-1.81,0-2.71,0,0,0,0,0,0,.81,0,1.62,0,2.42,0,0,0,0,0,0,0,0,.9,0,1.81,0,2.71h0c-.81,0-1.62,0-2.42,0h0Z"/>
      <path class="cls-2" d="M20.39,56.02c0-.9,0-1.81,0-2.71,0,0,0,0,0,0,.81,0,1.62,0,2.42,0,0,0,0,0,0,0,0,.9,0,1.81,0,2.71h0c-.81,0-1.62,0-2.42,0,0,0,0,0,0,0Z"/>
      <path class="cls-2" d="M20.39,50.89c0-.9,0-1.81,0-2.71,0,0,0,0,0,0,.81,0,1.62,0,2.42,0,0,0,0,0,0,0,0,.9,0,1.81,0,2.71h0c-.81,0-1.62,0-2.42,0,0,0,0,0,0,0Z"/>
      <path class="cls-2" d="M20.39,40.63c0-.9,0-1.81,0-2.71,0,0,0,0,0,0,.81,0,1.62,0,2.42,0h0c0,.9,0,1.8,0,2.71h0c-.81,0-1.62,0-2.42,0h0Z"/>
      <path class="cls-3" d="M22.81,48.18c-.81,0-1.62,0-2.42,0,0-.81,0-1.62,0-2.42,.81,0,1.62,0,2.42,0,0,.81,0,1.62,0,2.42Z"/>
      <path class="cls-3" d="M20.39,56.02c.81,0,1.62,0,2.42,0,0,.81,0,1.62,0,2.42-.81,0-1.62,0-2.42,0,0-.81,0-1.62,0-2.42Z"/>
      <path class="cls-3" d="M20.39,61.15c.81,0,1.62,0,2.42,0,0,.81,0,1.62,0,2.42-.81,0-1.62,0-2.42,0,0-.81,0-1.62,0-2.42Z"/>
      <path class="cls-3" d="M22.81,37.92c-.81,0-1.62,0-2.42,0,0-.81,0-1.62,0-2.42,0,0,0,0,0,0,.81,0,1.62,0,2.42,0,0,.81,0,1.62,0,2.42Z"/>
      <path class="cls-3" d="M20.39,50.89c.81,0,1.62,0,2.42,0,0,.81,0,1.62,0,2.42-.81,0-1.62,0-2.42,0,0-.81,0-1.62,0-2.42Z"/>
      <path class="cls-3" d="M20.39,40.63c.81,0,1.62,0,2.42,0,0,.81,0,1.62,0,2.42-.81,0-1.62,0-2.42,0,0-.81,0-1.62,0-2.42Z"/>
      <path class="cls-3" d="M20.39,66.28c.81,0,1.62,0,2.42,0,0,.81,0,1.62,0,2.42-.81,0-1.62,0-2.42,0,0-.81,0-1.62,0-2.42Z"/>
      <path class="cls-2" d="M22.81,35.5c-.81,0-1.62,0-2.42,0,0-.9,0-1.81,0-2.71,.81,0,1.62,0,2.42,0,0,0,0,0,0,0,0,.9,0,1.81,0,2.71h0Z"/>
      <path class="cls-2" d="M84.38,63.57c0,.9,0,1.81,0,2.71,0,0,0,0,0,0-.81,0-1.62,0-2.42,0,0-.9,0-1.81,0-2.71h2.42s0,0,0,0Z"/>
      <path class="cls-2" d="M84.38,48.18c0,.9,0,1.81,0,2.71,0,0,0,0,0,0-.81,0-1.62,0-2.42,0,0-.9,0-1.81,0-2.71,.81,0,1.62,0,2.42,0,0,0,0,0,0,0Z"/>
      <path class="cls-2" d="M84.38,43.05c0,.9,0,1.81,0,2.71,0,0,0,0,0,0-.81,0-1.62,0-2.42,0,0-.9,0-1.81,0-2.71,.81,0,1.62,0,2.42,0,0,0,0,0,0,0Z"/>
      <path class="cls-2" d="M84.38,53.31c0,.9,0,1.81,0,2.71,0,0,0,0,0,0-.81,0-1.62,0-2.42,0,0-.9,0-1.81,0-2.71,.81,0,1.62,0,2.42,0h0Z"/>
      <path class="cls-2" d="M84.38,58.44c0,.9,0,1.81,0,2.71,0,0,0,0,0,0-.81,0-1.62,0-2.42,0,0-.9,0-1.81,0-2.71,.81,0,1.62,0,2.42,0h0Z"/>
      <path class="cls-2" d="M84.38,37.92c0,.9,0,1.81,0,2.71,0,0,0,0,0,0-.81,0-1.62,0-2.42,0,0-.9,0-1.81,0-2.71,.81,0,1.62,0,2.42,0h0Z"/>
      <path class="cls-3" d="M81.95,66.28c.81,0,1.62,0,2.42,0,0,.81,0,1.62,0,2.42-.81,0-1.62,0-2.42,0,0,0,0,0,0,0,0-.81,0-1.62,0-2.42h0Z"/>
      <path class="cls-3" d="M81.95,45.76c.81,0,1.62,0,2.42,0,0,.81,0,1.62,0,2.42-.81,0-1.62,0-2.42,0,0,0,0,0,0,0,0-.81,0-1.62,0-2.42h0Z"/>
      <path class="cls-3" d="M84.38,37.92c-.81,0-1.62,0-2.42,0h0c0-.81,0-1.61,0-2.42h0c.81,0,1.62,0,2.42,0,0,0,0,0,0,0,0,.81,0,1.62,0,2.42Z"/>
      <path class="cls-3" d="M84.38,53.31c-.81,0-1.62,0-2.42,0,0,0,0,0,0,0,0-.81,0-1.62,0-2.42,0,0,0,0,0,0,.81,0,1.62,0,2.42,0,0,.81,0,1.62,0,2.42Z"/>
      <path class="cls-3" d="M81.95,40.63c.81,0,1.62,0,2.42,0,0,.81,0,1.62,0,2.42-.81,0-1.62,0-2.42,0,0,0,0,0,0,0,0-.81,0-1.62,0-2.42h0Z"/>
      <path class="cls-3" d="M81.95,61.15c.81,0,1.62,0,2.42,0,0,.81,0,1.62,0,2.42-.81,0-1.62,0-2.42,0,0,0,0,0,0,0,0-.81,0-1.62,0-2.42h0Z"/>
      <path class="cls-3" d="M84.38,58.44c-.81,0-1.62,0-2.42,0,0,0,0,0,0,0,0-.81,0-1.62,0-2.42h0c.81,0,1.62,0,2.42,0,0,.81,0,1.62,0,2.42Z"/>
      <path class="cls-2" d="M84.38,35.5c-.81,0-1.62,0-2.42,0,0-.9,0-1.81,0-2.71,0,0,0,0,0,0,.81,0,1.62,0,2.42,0,0,.9,0,1.81,0,2.71Z"/>
      <path class="cls-2" d="M63.85,30.37c.9,0,1.81,0,2.71,0,0,.81,0,1.62,0,2.42-.73,0-1.45-.02-2.18,0-.39,.01-.55-.13-.53-.53,.02-.63,0-1.27,0-1.9Z"/>
      <path class="cls-2" d="M58.73,32.79c0-.81,0-1.62,0-2.42,.64,0,1.28,.01,1.92,0,.55-.01,.84,.18,.8,.79-.04,.54,0,1.09,0,1.63,0,0,0,0,0,0-.9,0-1.81,0-2.71,0h0Z"/>
      <path class="cls-2" d="M68.99,33.47c-.81,.06-1.62,.06-2.43,0,0-.23,0-.45,0-.68,.81,0,1.62,0,2.42,0,0,0,0,0,0,0,0,.23,0,.45,0,.68Z"/>
      <path class="cls-2" d="M63.86,33.47c-.81,.06-1.62,.06-2.43,0,0-.23,0-.45,0-.68,0,0,0,0,0,0,.59,0,1.17,0,1.76,0,.44,0,.72,.18,.67,.68Z"/>
      <path class="cls-2" d="M53.59,32.79c0-.81,0-1.62,0-2.42,.9,0,1.81,0,2.71,0,0,.81,0,1.62,0,2.42,0,0,0,0,0,0-.9,0-1.81,0-2.71,0h0Z"/>
      <path class="cls-2" d="M38.2,30.37c.9,0,1.81,0,2.71,0,0,.81,0,1.62,0,2.42h0c-.9,0-1.81,0-2.71,0h0c0-.81,0-1.61,0-2.42Z"/>
      <path class="cls-2" d="M33.07,30.37c.9,0,1.81,0,2.71,0,0,.81,0,1.62,0,2.42,0,0,0,0,0,0-.9,0-1.81,0-2.71,0h0c0-.81,0-1.61,0-2.42Z"/>
      <path class="cls-2" d="M38.2,33.47c-.81,.06-1.62,.06-2.43,0,0-.23,0-.45,0-.68h0c.81,0,1.62,0,2.42,0,0,0,0,0,0,0,0,.23,0,.45,0,.68Z"/>
      <path class="cls-2" d="M43.33,30.37c.9,0,1.81,0,2.71,0,0,.81,0,1.62,0,2.42h0c-.9,0-1.81,0-2.71,0h0c0-.81,0-1.61,0-2.42Z"/>
      <path class="cls-2" d="M43.34,33.47c-.81,.06-1.62,.06-2.43,0,0-.23,0-.45,0-.68h0c.81,0,1.62,0,2.42,0,0,0,0,0,0,0,0,.23,0,.45,0,.68Z"/>
      <path class="cls-2" d="M58.73,33.47c-.81,.06-1.62,.06-2.43,0,0-.23,0-.45,0-.68,0,0,0,0,0,0,.81,0,1.62,0,2.42,0,0,0,0,0,0,0,0,.23,0,.45,0,.68Z"/>
      <path class="cls-2" d="M27.94,30.37c.9,0,1.81,0,2.71,0,0,.81,0,1.62,0,2.42,0,0,0,0,0,0-.9,0-1.81,0-2.71,0h0c0-.81,0-1.61,0-2.42Z"/>
      <path class="cls-2" d="M33.07,33.47c-.81,.06-1.62,.06-2.43,0,0-.23,0-.45,0-.68,0,0,0,0,0,0,.81,0,1.62,0,2.42,0,0,0,0,0,0,0,0,.23,0,.45,0,.68Z"/>
      <path class="cls-2" d="M48.46,30.37c.9,0,1.81,0,2.71,0,0,.81,0,1.62,0,2.42,0,0,0,0,0,0-.9,0-1.81,0-2.71,0h0c0-.81,0-1.61,0-2.42Z"/>
      <path class="cls-2" d="M48.47,33.47c-.81,.06-1.62,.06-2.43,0,0-.23,0-.45,0-.68h0c.81,0,1.62,0,2.42,0,0,0,0,0,0,0,0,.23,0,.45,0,.68Z"/>
      <path class="cls-2" d="M68.99,30.37c.9,0,1.81,0,2.71,0,0,.81,0,1.62,0,2.42,0,0,0,0,0,0-.9,0-1.81,0-2.71,0,0,0,0,0,0,0,0-.81,0-1.62,0-2.42Z"/>
      <path class="cls-2" d="M25.52,32.79c.81,0,1.62,0,2.42,0,0,0,0,0,0,0,0,.9,0,1.81,0,2.71-.81,0-1.62,0-2.42,0h0c0-.9,0-1.8,0-2.71h0Z"/>
      <path class="cls-2" d="M74.12,30.37c.9,0,1.81,0,2.71,0,0,.81,0,1.62,0,2.42h0c-.9,0-1.81,0-2.71,0h0c0-.81,0-1.61,0-2.42Z"/>
      <path class="cls-2" d="M74.12,33.47c-.81,.06-1.62,.06-2.43,0,0-.23,0-.45,0-.68,0,0,0,0,0,0,.81,0,1.62,0,2.42,0,0,0,0,0,0,0,0,.23,0,.45,0,.68Z"/>
      <path class="cls-2" d="M53.6,33.47c-.81,.06-1.62,.06-2.43,0,0-.23,0-.45,0-.68,0,0,0,0,0,0,.81,0,1.62,0,2.42,0,0,0,0,0,0,0,0,.23,0,.45,0,.68Z"/>
      <path class="cls-2" d="M76.83,32.79c.81,0,1.62,0,2.42,0,0,0,0,0,0,0,0,.9,0,1.81,0,2.71,0,0,0,0,0,0-.81,0-1.62,0-2.42,0,0-.9,0-1.81,0-2.71h0Z"/>
      <path class="cls-2" d="M66.56,73.83c-.9,0-1.81,0-2.71,0,0-.81,0-1.62,0-2.42,0,0,0,0,0,0,.9,0,1.81,0,2.71,0h0c0,.81,0,1.61,0,2.42Z"/>
      <path class="cls-2" d="M61.43,73.83c-.9,0-1.81,0-2.71,0,0-.81,0-1.62,0-2.42h0c.9,0,1.81,0,2.71,0h0c0,.81,0,1.61,0,2.42Z"/>
      <path class="cls-2" d="M63.86,71.41c-.81,0-1.62,0-2.42,0,0,0,0,0,0,0,0-.37,0-.74,0-1.11,.81-.06,1.62-.06,2.43,0,0,.37,0,.74,0,1.11h0Z"/>
      <path class="cls-2" d="M56.3,73.83c-.9,0-1.81,0-2.71,0,0-.81,0-1.62,0-2.42,0,0,0,0,0,0,.9,0,1.81,0,2.71,0h0c0,.81,0,1.61,0,2.42Z"/>
      <path class="cls-2" d="M58.73,71.41c-.81,0-1.62,0-2.42,0,0,0,0,0,0,0,0-.37,0-.74,0-1.11,.81-.06,1.62-.06,2.43,0,0,.37,0,.74,0,1.11h0Z"/>
      <path class="cls-2" d="M51.17,73.83c-.9,0-1.81,0-2.71,0,0-.81,0-1.62,0-2.42,0,0,0,0,0,0,.9,0,1.81,0,2.71,0h0c0,.81,0,1.61,0,2.42Z"/>
      <path class="cls-2" d="M53.59,71.41c-.81,0-1.62,0-2.42,0,0,0,0,0,0,0,0-.37,0-.74,0-1.11,.81-.06,1.62-.06,2.43,0,0,.37,0,.74,0,1.11h0Z"/>
      <path class="cls-2" d="M71.69,73.83c-.9,0-1.81,0-2.71,0,0-.81,0-1.62,0-2.42,0,0,0,0,0,0,.9,0,1.81,0,2.71,0h0c0,.81,0,1.61,0,2.42Z"/>
      <path class="cls-2" d="M68.99,71.41c-.81,0-1.62,0-2.42,0,0,0,0,0,0,0,0-.37,0-.74,0-1.11,.81-.06,1.62-.06,2.43,0,0,.37,0,.74,0,1.11h0Z"/>
      <path class="cls-2" d="M76.83,73.83c-.9,0-1.81,0-2.71,0,0-.81,0-1.62,0-2.42,0,0,0,0,0,0,.9,0,1.81,0,2.71,0h0c0,.81,0,1.61,0,2.42Z"/>
      <path class="cls-2" d="M74.12,71.41c-.81,0-1.62,0-2.42,0,0,0,0,0,0,0,0-.37,0-.74,0-1.11,.81-.06,1.62-.06,2.43,0,0,.37,0,.74,0,1.11h0Z"/>
      <path class="cls-2" d="M46.04,73.83c-.9,0-1.81,0-2.71,0,0-.81,0-1.62,0-2.42,0,0,0,0,0,0,.9,0,1.81,0,2.71,0h0c0,.81,0,1.61,0,2.42Z"/>
      <path class="cls-2" d="M48.46,71.41c-.81,0-1.62,0-2.42,0,0,0,0,0,0,0,0-.37,0-.74,0-1.11,.81-.06,1.62-.06,2.43,0,0,.37,0,.74,0,1.11,0,0,0,0,0,0Z"/>
      <path class="cls-2" d="M79.25,71.41c-.81,0-1.62,0-2.42,0,0,0,0,0,0,0,0-.37,0-.74,0-1.11,.81-.06,1.62-.06,2.43,0,0,.37,0,.74,0,1.11h0Z"/>
      <path class="cls-2" d="M40.91,73.83c-.9,0-1.81,0-2.71,0,0-.81,0-1.62,0-2.42,0,0,0,0,0,0,.9,0,1.81,0,2.71,0h0c0,.81,0,1.61,0,2.42Z"/>
      <path class="cls-2" d="M43.33,71.41c-.81,0-1.62,0-2.42,0,0,0,0,0,0,0,0-.37,0-.74,0-1.11,.81-.06,1.62-.06,2.43,0,0,.37,0,.74,0,1.11h0Z"/>
      <path class="cls-2" d="M35.78,73.83c-.9,0-1.81,0-2.71,0,0-.81,0-1.62,0-2.42,0,0,0,0,0,0,.9,0,1.81,0,2.71,0h0c0,.81,0,1.61,0,2.42Z"/>
      <path class="cls-2" d="M38.2,71.41c-.81,0-1.62,0-2.42,0,0,0,0,0,0,0,0-.37,0-.74,0-1.11,.81-.06,1.62-.06,2.43,0,0,.37,0,.74,0,1.11h0Z"/>
      <path class="cls-2" d="M30.65,73.83c-.9,0-1.81,0-2.71,0,0-.81,0-1.62,0-2.42,0,0,0,0,0,0,.9,0,1.81,0,2.71,0h0c0,.81,0,1.61,0,2.42Z"/>
      <path class="cls-2" d="M33.07,71.41c-.81,0-1.62,0-2.42,0,0,0,0,0,0,0,0-.37,0-.74,0-1.11,.81-.06,1.62-.06,2.43,0,0,.37,0,.74,0,1.11h0Z"/>
      <path class="cls-2" d="M22.81,68.7c0-.81,0-1.62,0-2.42,0,0,0,0,0,0,.66,.11,.96-.13,.86-.83-.05-.35-.05-.71,0-1.05,.09-.7-.2-.94-.86-.83,0,0,0,0,0,0,0-.81,0-1.62,0-2.42,0,0,0,0,0,0,.66,.11,.96-.13,.86-.83-.05-.35-.05-.71,0-1.05,.09-.7-.2-.94-.86-.83,0,0,0,0,0,0,0-.81,0-1.62,0-2.42,0,0,0,0,0,0,.66,.11,.96-.13,.86-.83-.05-.35-.05-.71,0-1.05,.09-.7-.2-.94-.86-.83,0,0,0,0,0,0,0-.81,0-1.62,0-2.42,0,0,0,0,0,0,.66,.11,.96-.13,.86-.83-.05-.35-.05-.71,0-1.05,.09-.7-.2-.94-.86-.83,0,0,0,0,0,0,0-.81,0-1.62,0-2.42,0,0,0,0,0,0,.66,.11,.96-.13,.86-.83-.05-.35-.05-.71,0-1.05,.09-.7-.2-.94-.86-.83,0,0,0,0,0,0,0-.81,0-1.62,0-2.42,0,0,0,0,0,0,.66,.11,.96-.13,.86-.83-.05-.35-.05-.71,0-1.05,.09-.7-.2-.94-.86-.83h0c0-.81,0-1.61,0-2.42,0,0,0,0,0,0,.9,0,1.81,0,2.71,0,0,0,0,0,0,0,.04,.79-.19,1.62,.42,2.3-.43-.16-.7-.55-1.08-.79-.25-.16-.46-.56-.75-.45-.37,.15-.18,.59-.18,.89-.01,6.36,0,12.72,0,19.08,0,4.01,0,8.02,0,12.03,0,1.35,.34,1.68,1.67,1.7,.78,.01,1.56,.03,2.35,.04,0,.37,0,.74,0,1.11,0,0,0,0,0,0-.81,0-1.62,0-2.42,0,0,0,0,0,0,0-.13-.33,.33-.96-.4-.98-.81-.01-1.28-.49-1.38-1.13-.11-.7-.5-.59-.93-.6h0Z"/>
      <path class="cls-3" d="M22.81,68.7c.43,0,.82-.1,.93,.6,.1,.64,.57,1.12,1.38,1.13,.73,.01,.27,.65,.4,.98-.9,0-1.81,0-2.71,0,0-.9,0-1.81,0-2.71Z"/>
      <path class="cls-3" d="M79.25,71.41c0-.37,0-.74,0-1.11,.14,0,.28-.02,.43-.03,.18,.2,.25,.1,.29-.1,.18-.19,.42-.33,.48-.61,.21-.02,.37-.15,.35-.35-.03-.54,.31-.52,.67-.51,.16,0,.32,0,.48,0,0,0,0,0,0,0,0,.9,0,1.81,0,2.71-.9,0-1.81,0-2.71,0Z"/>
      <path class="cls-3" d="M25.52,35.5c-.9,0-1.81,0-2.71,0,0-.9,0-1.81,0-2.71,.9,0,1.81,0,2.71,0,0,.9,0,1.81,0,2.71Z"/>
      <path class="cls-3" d="M79.25,35.5c0-.9,0-1.81,0-2.71,.9,0,1.81,0,2.71,0,0,.9,0,1.81,0,2.71,0,0,0,0,0,0-.9,0-1.81,0-2.71,0Z"/>
      <path class="cls-3" d="M22.81,63.57c.66-.11,.96,.13,.86,.83-.05,.35-.05,.71,0,1.05,.09,.7-.2,.94-.86,.83,0-.9,0-1.81,0-2.71Z"/>
      <path class="cls-3" d="M22.81,58.44c.66-.11,.96,.13,.86,.83-.05,.35-.05,.71,0,1.05,.09,.7-.2,.94-.86,.83,0-.9,0-1.81,0-2.71Z"/>
      <path class="cls-3" d="M22.81,43.05c.66-.11,.96,.13,.86,.83-.05,.35-.05,.71,0,1.05,.09,.7-.2,.94-.86,.83,0-.9,0-1.81,0-2.71Z"/>
      <path class="cls-3" d="M22.81,53.31c.66-.11,.96,.13,.86,.83-.05,.35-.05,.71,0,1.05,.09,.7-.2,.94-.86,.83,0-.9,0-1.81,0-2.71Z"/>
      <path class="cls-3" d="M22.81,48.18c.66-.11,.96,.13,.86,.83-.05,.35-.05,.71,0,1.05,.09,.7-.2,.94-.86,.83,0-.9,0-1.81,0-2.71Z"/>
      <path class="cls-3" d="M22.81,37.92c.66-.11,.96,.13,.86,.83-.05,.35-.05,.71,0,1.05,.09,.7-.2,.94-.86,.83,0-.9,0-1.81,0-2.71Z"/>
      <path class="cls-3" d="M81.95,63.57c0,.9,0,1.81,0,2.71,0,0,0,0,0,0-1.3-.01-1.12,.15-1.14-1.11,0-.16,0-.33,0-.49,.01-1.26-.15-1.09,1.14-1.11h0Z"/>
      <path class="cls-3" d="M81.95,48.18c0,.9,0,1.81,0,2.71,0,0,0,0,0,0-1.3-.01-1.12,.15-1.14-1.11,0-.16,0-.33,0-.49,.01-1.26-.15-1.09,1.14-1.11h0Z"/>
      <path class="cls-3" d="M81.95,43.05c0,.9,0,1.81,0,2.71,0,0,0,0,0,0-1.3-.01-1.12,.15-1.14-1.11,0-.16,0-.33,0-.49,.01-1.26-.15-1.09,1.14-1.11h0Z"/>
      <path class="cls-3" d="M81.95,53.31c0,.9,0,1.81,0,2.71,0,0,0,0,0,0-1.3-.01-1.12,.15-1.14-1.11,0-.16,0-.33,0-.49,.01-1.26-.15-1.09,1.14-1.11h0Z"/>
      <path class="cls-3" d="M81.95,58.44c0,.9,0,1.81,0,2.71,0,0,0,0,0,0-1.3-.01-1.12,.15-1.14-1.11,0-.16,0-.33,0-.49,.01-1.26-.15-1.09,1.14-1.11h0Z"/>
      <path class="cls-3" d="M81.95,37.92c0,.9,0,1.81,0,2.71,0,0,0,0,0,0-1.3-.01-1.12,.15-1.14-1.11,0-.16,0-.33,0-.49,.01-1.26-.15-1.09,1.14-1.11h0Z"/>
      <path class="cls-2" d="M81.96,37.92c-1.29,.01-1.12-.15-1.14,1.11,0,.16,0,.33,0,.49,.02,1.25-.16,1.09,1.14,1.11,0,.81,0,1.62,0,2.42-1.29,.01-1.12-.15-1.14,1.11,0,.16,0,.33,0,.49,.02,1.25-.16,1.09,1.14,1.11,0,.81,0,1.62,0,2.42-1.29,.01-1.12-.15-1.14,1.11,0,.16,0,.33,0,.49,.02,1.25-.16,1.09,1.14,1.11,0,.81,0,1.62,0,2.42-1.29,.01-1.12-.15-1.14,1.11,0,.16,0,.33,0,.49,.02,1.25-.16,1.09,1.14,1.11,0,.81,0,1.62,0,2.42-1.29,.01-1.12-.15-1.14,1.11,0,.16,0,.33,0,.49,.02,1.25-.16,1.09,1.14,1.11,0,.81,0,1.62,0,2.42-1.29,.01-1.12-.15-1.14,1.11,0,.16,0,.33,0,.49,.02,1.25-.16,1.09,1.14,1.11,0,.81,0,1.62,0,2.42-.16,0-.32,0-.48,0-.36-.01-.71-.03-.67,.51,.01,.2-.14,.33-.35,.35,.16-.51,.12-1.03,.12-1.55,0-8.68,0-17.36,0-26.04,0-1.56,0-3.13,0-4.69,0-.25,.13-.6-.12-.72-.3-.15-.47,.22-.69,.37-.48,.3-.83,.78-1.36,1.01,0-.18,.07-.32,.23-.4,.54-.26,.69-.7,.63-1.26-.03-.25,0-.51,0-.76,0,0,0,0,0,0,.9,0,1.81,0,2.71,0,0,.81,0,1.62,0,2.42Z"/>
      <path class="cls-2" d="M58.53,46.87c2.61-2.16,5.28-4.25,7.96-6.31,.03,.03,.06,.06,.1,.09,0,.8-.01,1.6-.02,2.4-.73,0-1.46,.01-2.18,0-.4-.01-.54,.14-.53,.53,.02,.73,0,1.45,0,2.18-.66,0-1.31,0-1.97,0-.33,0-.46,.13-.46,.46,.01,.66,0,1.31,0,1.97-.9,0-1.81,0-2.71,0,0,0,0,0,0,0-.09-.43,.19-.92-.2-1.31Z"/>
      <path class="cls-2" d="M44.11,45.41c1.47,1.14,2.93,2.29,4.39,3.43,.1,.08,.16,.22,.24,.33-.29,.04-.28,.25-.28,.47,0,.41,0,.83,0,1.24h0c-.81,0-1.62,0-2.42,0,0-.71,0-1.41,0-2.12,0-.42-.17-.6-.59-.59-.71,.01-1.41,0-2.12,0,0-.81,0-1.62,0-2.42h0c.3-.01,.67,.1,.78-.35Z"/>
      <path class="cls-3" d="M35.53,38.62c.13,.01,.2,.1,.24,.21,0,.6,0,1.2,0,1.8-.71,0-1.41-.02-2.12,0-.48,.02-.62-.17-.59-.62,.03-.47-.02-.94,.01-1.41,.04-.51-.11-.74-.66-.69-.59,.04-1.18,0-1.77,0,0-.81,0-1.62,0-2.42,0,0,0,0,0,0,.32,0,.64,.01,.95,.02l.03,.02c.03,.18,.13,.26,.32,.24,.18,.05,.32,.15,.4,.32,.04,.28,.19,.41,.48,.38,.06,0,.09,.02,.1,.08,.14,.73,.46,1.22,1.31,1.06,0,0,0,0,0,0,.01,.39,.3,.41,.58,.44,.09,.06,.17,.12,.26,.19,.03,.28,.19,.4,.47,.38Z"/>
      <path class="cls-3" d="M76.82,32.79c0,.9,0,1.81,0,2.71,0,0,0,0,0,0-.73,0-1.45,.02-2.18,0-.39-.01-.55,.13-.53,.53,.02,.63,0,1.27,0,1.9-.81,0-1.62,0-2.42,0h0c-.07-.76-.04-1.48,.78-1.89,.05-.03,.05-.17,.07-.25,0,0,0,0,0,0,.17,.01,.28-.05,.3-.23,0-.06,.04-.08,.09-.07,.54-.14,.97-.41,1.19-.95,.04-.11,.11-.18,.24-.19,.42,.02,.62-.35,.91-.55,.2-.14,.05-.27-.16-.28-.33-.01-.66-.02-.99-.03,0-.23,0-.45,0-.68,.9,0,1.81,0,2.71,0Z"/>
      <path class="cls-2" d="M38.06,40.62c1.9,1.42,3.76,2.88,5.57,4.42-.46,.09-.24,.46-.3,.71,0,0,0,0,0,0-.81,0-1.62,0-2.42,0,0-.71,0-1.41,0-2.12,0-.42-.17-.6-.59-.59-.71,.01-1.41,0-2.12,0,0,0,0,0,0,0-.08-.79,.18-1.61-.19-2.37l.05-.05Z"/>
      <path class="cls-3" d="M69.28,38.37c.08-.18,.24-.24,.4-.31,.66-.2,1.34-.12,2.01-.13,0,0,0,0,0,0,0,.73-.01,1.46,0,2.18,.01,.4-.14,.54-.53,.53-.73-.02-1.45,0-2.18,0h0c0-.67,0-1.34-.01-2.01,0,0,0,0,0,0,.19,.02,.3-.06,.31-.25Z"/>
      <path class="cls-2" d="M52.97,51.29c.24-.31,.56-.53,.9-.71,.13,.3,.38,.31,.66,.31,.59,0,1.18,0,1.78,0,0,0,0,0,0,0v2.42c-.9,0-1.8,0-2.71,0,0-.5-.04-1,.01-1.49,.06-.55-.17-.65-.63-.53Z"/>
      <path class="cls-2" d="M50.61,50.58c.36,.16,.65,.41,.9,.71-.35,.05-.35,.3-.34,.57,0,.48,0,.97,0,1.45-.9,0-1.81,0-2.71,0,0-.81,0-1.62,0-2.42,0,0,0,0,0,0,.45,0,.9,0,1.35,0,.3,0,.63,.07,.8-.3Z"/>
      <path class="cls-2" d="M56.13,48.79c.28-.33,.62-.59,1-.8,.49,.37,1.06,.1,1.59,.18,0,0,0,0,0,0,0,.9,0,1.81,0,2.71-.81,0-1.62,0-2.42,0,0,0,0,0,0,0-.06-.7,.14-1.42-.17-2.09Z"/>
      <path class="cls-3" d="M27.94,35.5c0-.9,0-1.81,0-2.71,.9,0,1.81,0,2.71,0,0,.23,0,.45,0,.68-.43,.01-.85,.02-1.28,.03-.1,.01-.24,0-.21,.16,.03,.14,.16,.11,.27,.1,.34,.22,.67,.44,.93,.76,.02,.19,.12,.27,.31,.25,0,0,0,0,0,0,0,.24,0,.49-.01,.73,0,0,0,0,0,0-.9,0-1.81,0-2.71,0h0Z"/>
      <path class="cls-3" d="M51.17,53.31c0-.48,0-.97,0-1.45,0-.26,0-.52,.34-.57,.12,0,.18,.08,.23,.18,.01,.16,.03,.32,.26,.2,.44,.17,.64-.28,.97-.39,.46-.12,.69-.02,.63,.53-.05,.49-.01,.99-.01,1.49,0,0,0,0,0,0-.81,0-1.62,0-2.42,0h0Z"/>
      <path class="cls-3" d="M56.13,48.79c.32,.68,.12,1.4,.17,2.09-.59,0-1.18,0-1.78,0-.27,0-.53,0-.66-.31,.07-.16,.21-.24,.37-.29,.21,.04,.34-.04,.35-.27,.06-.15,.19-.22,.33-.27,.22,.01,.39-.03,.38-.3,.23-.28,.51-.49,.83-.65Z"/>
      <path class="cls-2" d="M68.97,38.61c0,.67,0,1.34,.01,2.01-.8,0-1.6,.01-2.4,.02-.03-.03-.06-.06-.1-.09,.8-.68,1.6-1.37,2.48-1.94Z"/>
      <path class="cls-3" d="M50.61,50.58c-.16,.37-.5,.3-.8,.3-.45,0-.9,0-1.35,0,0-.41,0-.83,0-1.24,0-.21,0-.43,.28-.47,.43,.22,.85,.44,1.16,.83,0,.24,.13,.31,.35,.28,.16,.05,.29,.14,.36,.29Z"/>
      <path class="cls-2" d="M35.78,40.63c0-.6,0-1.2,0-1.8,.82,.53,1.57,1.15,2.29,1.8,0,0-.05,.05-.05,.05-.75-.02-1.49-.03-2.24-.05h0Z"/>
      <path class="cls-2" d="M71.69,37.92c-.67,.01-1.35-.07-2.01,.13,.91-.82,1.85-1.6,2.86-2.28-.02,.09-.02,.23-.07,.25-.82,.41-.85,1.12-.78,1.89Z"/>
      <path class="cls-3" d="M33.07,33.47c0-.23,0-.45,0-.68,.9,0,1.81,0,2.71,0,0,.23,0,.45,0,.68-.9,.06-1.8,.06-2.7,0Z"/>
      <path class="cls-3" d="M40.91,32.79c0,.23,0,.45,0,.68-.9,.06-1.8,.06-2.7,0,0-.23,0-.45,0-.68,.9,0,1.81,0,2.71,0Z"/>
      <path class="cls-3" d="M46.04,32.79c0,.23,0,.45,0,.68-.9,.06-1.8,.06-2.7,0,0-.23,0-.45,0-.68,.9,0,1.81,0,2.71,0Z"/>
      <path class="cls-3" d="M51.17,32.79c0,.23,0,.45,0,.68-.9,.06-1.8,.06-2.7,0,0-.23,0-.45,0-.68,.9,0,1.81,0,2.71,0Z"/>
      <path class="cls-3" d="M53.6,33.47c0-.23,0-.45,0-.68,.9,0,1.81,0,2.71,0,0,.23,0,.45,0,.68-.9,.06-1.8,.06-2.7,0Z"/>
      <path class="cls-3" d="M58.73,33.47c0-.23,0-.45,0-.68,.9,0,1.81,0,2.71,0,0,.23,0,.45,0,.68-.9,.06-1.8,.06-2.7,0Z"/>
      <path class="cls-3" d="M71.69,32.79c0,.23,0,.45,0,.68-.9,.06-1.8,.06-2.7,0,0-.23,0-.45,0-.68,.9,0,1.81,0,2.71,0Z"/>
      <path class="cls-3" d="M58.73,48.18c-.53-.08-1.1,.19-1.59-.18,.36-.5,1.02-.64,1.39-1.13,.39,.39,.11,.88,.2,1.31Z"/>
      <path class="cls-2" d="M34.24,37.62c-.85,.16-1.18-.33-1.31-1.06,.49,.29,.94,.62,1.31,1.06Z"/>
      <path class="cls-2" d="M30.65,35.5c0-.24,0-.49,.01-.73,.38,.17,.69,.42,.94,.75-.32,0-.64-.01-.95-.02Z"/>
      <path class="cls-2" d="M74.13,34.53c-.22,.54-.66,.81-1.19,.95,.34-.39,.74-.7,1.19-.95Z"/>
      <path class="cls-3" d="M43.33,45.76c.06-.26-.16-.63,.3-.71,.04,.04,.09,.08,.13,.11,0,.23,.1,.33,.34,.25,0,0,0,0,0,0-.11,.44-.47,.33-.78,.35Z"/>
      <path class="cls-2" d="M75.11,33.5c.21,.01,.36,.15,.16,.28-.29,.2-.49,.57-.91,.55,.16-.36,.66-.42,.75-.84Z"/>
      <path class="cls-2" d="M34.81,38.05c-.28-.03-.57-.06-.58-.44,.25,.07,.44,.23,.58,.44Z"/>
      <path class="cls-2" d="M35.53,38.62c-.28,.03-.44-.09-.47-.38,.21,.05,.36,.19,.47,.38Z"/>
      <path class="cls-2" d="M32.83,36.48c-.28,.03-.44-.1-.48-.38,.21,.06,.37,.19,.48,.38Z"/>
      <path class="cls-2" d="M55.3,49.45c0,.27-.16,.32-.38,.3,.07-.17,.2-.27,.38-.3Z"/>
      <path class="cls-2" d="M29.43,33.76c-.11,0-.24,.04-.27-.1-.03-.16,.1-.15,.21-.16,.02,.09,.04,.17,.06,.26Z"/>
      <path class="cls-2" d="M69.28,38.37c-.01,.2-.12,.27-.31,.25,.05-.15,.15-.24,.31-.25Z"/>
      <path class="cls-2" d="M30.67,34.77c-.19,.02-.29-.06-.31-.25,.16,0,.26,.11,.31,.25Z"/>
      <path class="cls-2" d="M50.25,50.29c-.22,.04-.35-.04-.35-.28,.17,.02,.29,.12,.35,.28Z"/>
      <path class="cls-2" d="M54.59,50.02c0,.23-.14,.3-.35,.27,.06-.16,.18-.25,.35-.27Z"/>
      <path class="cls-2" d="M52,51.68c-.23,.11-.25-.04-.26-.2,.14,0,.23,.06,.26,.2Z"/>
      <path class="cls-2" d="M31.95,35.78c-.18,.02-.29-.06-.32-.24,.16,0,.25,.11,.32,.24Z"/>
      <path class="cls-2" d="M72.84,35.55c-.02,.18-.13,.25-.3,.23,.06-.13,.14-.23,.3-.23Z"/>
      <path class="cls-2" d="M44.11,45.41c-.24,.08-.33-.02-.34-.25,.17,0,.26,.12,.34,.25Z"/>
      <path class="cls-3" d="M25.94,37.8c-.61-.68-.39-1.51-.42-2.3,.81,0,1.62,0,2.42,0,0,0,0,0,0,0,0,.81,0,1.62,0,2.42-.6,.01-1.2,.02-1.8,.03-.11,0-.18-.06-.2-.16Z"/>
      <path class="cls-3" d="M79.25,35.5c0,.26-.02,.51,0,.76,.06,.56-.09,1-.63,1.26-.16,.08-.23,.22-.23,.4l-.05,.03c-.51-.01-1.01-.03-1.52-.04,0-.81,0-1.62,0-2.42,0,0,0,0,0,0,.81,0,1.62,0,2.42,0Z"/>
      <path class="cls-3" d="M66.56,70.3c0,.37,0,.74,0,1.11-.9,0-1.81,0-2.71,0,0-.37,0-.74,0-1.11,.9-.06,1.8-.06,2.7,0Z"/>
      <path class="cls-3" d="M58.72,71.41c0-.37,0-.74,0-1.11,.9-.06,1.8-.06,2.7,0,0,.37,0,.74,0,1.11-.9,0-1.81,0-2.71,0Z"/>
      <path class="cls-3" d="M53.6,70.3c.9-.06,1.8-.06,2.7,0,0,.37,0,.74,0,1.11-.9,0-1.81,0-2.71,0,0-.37,0-.74,0-1.11Z"/>
      <path class="cls-3" d="M48.47,70.3c.9-.06,1.8-.06,2.7,0,0,.37,0,.74,0,1.11-.9,0-1.81,0-2.71,0,0-.37,0-.74,0-1.11Z"/>
      <path class="cls-3" d="M68.99,70.3c.9-.06,1.8-.06,2.7,0,0,.37,0,.74,0,1.11-.9,0-1.81,0-2.71,0,0-.37,0-.74,0-1.11Z"/>
      <path class="cls-3" d="M74.12,70.3c.9-.06,1.8-.06,2.7,0,0,.37,0,.74,0,1.11-.9,0-1.81,0-2.71,0,0-.37,0-.74,0-1.11Z"/>
      <path class="cls-3" d="M43.34,70.3c.9-.06,1.8-.06,2.7,0,0,.37,0,.74,0,1.11-.9,0-1.81,0-2.71,0,0-.37,0-.74,0-1.11Z"/>
      <path class="cls-3" d="M38.2,70.3c.9-.06,1.8-.06,2.7,0,0,.37,0,.74,0,1.11-.9,0-1.81,0-2.71,0,0-.37,0-.74,0-1.11Z"/>
      <path class="cls-3" d="M33.07,70.3c.9-.06,1.8-.06,2.7,0,0,.37,0,.74,0,1.11-.9,0-1.81,0-2.71,0,0-.37,0-.74,0-1.11Z"/>
      <path class="cls-3" d="M27.94,70.3c.9-.06,1.8-.06,2.7,0,0,.37,0,.74,0,1.11-.9,0-1.81,0-2.71,0,0-.37,0-.74,0-1.11Z"/>
      <path class="cls-2" d="M79.68,70.27c.1-.03,.19-.07,.29-.1-.03,.2-.1,.31-.29,.1Z"/>
      <path class="cls-3" d="M58.73,50.89c0-.9,0-1.81,0-2.71,.9,0,1.81,0,2.71,0,0,0,0,0,0,0,0,.73-.01,1.46,0,2.18,.01,.4-.14,.54-.53,.53-.73-.02-1.45,0-2.18,0h0Z"/>
      <path class="cls-3" d="M63.86,45.76c0-.73,.01-1.46,0-2.18-.01-.4,.14-.54,.53-.53,.73,.02,1.45,0,2.18,0,0,0,0,0,0,0,0,.9,0,1.81,0,2.71-.9,0-1.81,0-2.71,0h0Z"/>
      <path class="cls-3" d="M66.59,40.65c.8,0,1.6-.01,2.4-.02,0,0,0,0,0,0,0,.66,0,1.31,0,1.97,0,.33-.13,.46-.46,.46-.66-.01-1.31,0-1.97,0,0,0,0,0,0,0,0-.8,.01-1.6,.02-2.4Z"/>
      <path class="cls-3" d="M61.43,48.18c0-.66,0-1.31,0-1.97,0-.33,.13-.46,.46-.46,.66,.01,1.31,0,1.97,0,0,0,0,0,0,0,0,.81,0,1.62,0,2.42-.81,0-1.62,0-2.42,0h0Z"/>
      <path class="cls-3" d="M43.33,48.18c.71,0,1.41,0,2.12,0,.42,0,.6,.17,.59,.59-.01,.71,0,1.41,0,2.12,0,0,0,0,0,0-.73,0-1.46-.01-2.18,0-.4,.01-.54-.14-.53-.53,.02-.73,0-1.45,0-2.18h0Z"/>
      <path class="cls-3" d="M48.46,50.89c0,.81,0,1.62,0,2.42,0,0,0,0,0,0-.66,0-1.31,0-1.97,0-.33,0-.46-.13-.46-.46,.01-.66,0-1.31,0-1.97,0,0,0,0,0,0,.81,0,1.62,0,2.42,0Z"/>
      <path class="cls-3" d="M40.91,45.76c.81,0,1.62,0,2.42,0,0,.81,0,1.62,0,2.42,0,0,0,0,0,0-.81,0-1.62,0-2.42,0,0-.81,0-1.62,0-2.42,0,0,0,0,0,0Z"/>
      <path class="cls-2" d="M36.76,46.38c-1.86-1.29-3.55-2.78-5.34-4.16-.78-.6-1.52-1.25-2.28-1.88,.2-.03,.34,.11,.51,.19,.67,.32,.99,.11,1-.63,0-.66,0-1.31,0-1.97h0c.59,0,1.18,.03,1.77-.01,.55-.04,.7,.18,.66,.69-.04,.47,.02,.94-.01,1.41-.03,.45,.12,.64,.59,.62,.71-.03,1.41,0,2.12,0,0,0,0,0,0,0,0,.66,0,1.31,0,1.97,0,.33,.13,.46,.46,.46,.66-.01,1.31,0,1.97,0,0,0,0,0,0,0,0,.9,0,1.81,0,2.71h0c-.54,0-1.08,0-1.63,0,0,.31,.25,.41,.18,.62Z"/>
      <path class="cls-2" d="M27.94,37.92c0-.81,0-1.62,0-2.42,.9,0,1.81,0,2.71,0,0,.81,0,1.62,0,2.42,0,0,0,0,0,0-.9,0-1.81,0-2.71,0h0Z"/>
      <path class="cls-2" d="M66.56,43.05c.66,0,1.31,0,1.97,0,.33,0,.46-.13,.46-.46-.01-.66,0-1.31,0-1.97,.73,0,1.46-.01,2.18,0,.4,.01,.54-.14,.53-.53-.02-.73,0-1.45,0-2.18,.81,0,1.62,0,2.42,0,0,0,0,0,0,0,0,.47,0,.94,0,1.41q0,1.35,1.23,1.01c-2.3,1.93-4.64,3.81-7.06,5.59-.54-.37-1.16-.08-1.73-.17h0c0-.9,0-1.8,0-2.71Z"/>
      <path class="cls-2" d="M76.83,35.5c0,.81,0,1.62,0,2.42,0,0,0,0,0,0-.9,0-1.81,0-2.71,0,0,0,0,0,0,0,0-.63,.02-1.27,0-1.9-.01-.4,.14-.54,.53-.53,.73,.02,1.45,0,2.18,0Z"/>
      <path class="cls-3" d="M38.2,45.76c0-.9,0-1.81,0-2.71,.71,0,1.41,.01,2.12,0,.42,0,.6,.17,.59,.59-.01,.71,0,1.41,0,2.12,0,0,0,0,0,0-.9,0-1.81,0-2.71,0Z"/>
      <path class="cls-3" d="M38.2,43.05c-.66,0-1.31,0-1.97,0-.33,0-.46-.13-.46-.46,.01-.66,0-1.31,0-1.97,.75,.02,1.49,.03,2.24,.05,.37,.77,.11,1.58,.19,2.37Z"/>
      <path class="cls-3" d="M53.16,57.75c-.1,.02-.2,.05-.29,.07-.42-.16-.84-.16-1.25,0-.17,.03-.32,0-.44-.14-.16-.32-.39-.52-.77-.51-.12,0-.2-.06-.22-.18-.01-.2-.12-.28-.31-.25,0,0,0,0,0,0-.17-.45-.49-.69-.96-.75h-.01c-.02-.21-.13-.28-.32-.25,0,0,0,0,0,0-.21-.81-.1-1.63-.12-2.45,0,0,0,0,0,0,.9,0,1.81,0,2.71,0,0,0,0,0,0,0,0,.73,0,1.46,0,2.19-.01,.81,.63,.56,.96,.49,.49-.11,1.33,.57,1.45-.49,.08-.72,.02-1.46,.02-2.19,0,0,0,0,0,0,.9,0,1.81,0,2.71,0,0,0,0,0,0,0-.04,.83,.21,1.71-.41,2.45,0,0,0,0,0,0-.19-.03-.3,.05-.32,.25h-.01c-.48,.06-.8,.31-.97,.76-.13,.2-.29,.35-.53,.42-.29-.04-.46,.07-.49,.37l-.04,.05h-.07c-.15-.04-.27-.01-.32,.15Z"/>
      <path class="cls-3" d="M56.3,50.89c.81,0,1.62,0,2.42,0,0,0,0,0,0,0,0,.66,0,1.31,0,1.97,0,.33-.13,.46-.46,.46-.66-.01-1.31,0-1.97,0,0,0,0,0,0,0,0-.81,0-1.62,0-2.42Z"/>
      <path class="cls-2" d="M53.59,53.31c0,.73,.06,1.47-.02,2.19-.12,1.05-.96,.38-1.45,.49-.32,.07-.97,.33-.96-.49,.01-.73,0-1.46,0-2.19,.81,0,1.62,0,2.42,0Z"/>
      <path class="cls-2" d="M27.93,39.36c-.66-.39-1.23-.88-1.78-1.41,.6-.01,1.2-.02,1.8-.03,0,0,0,0,0,0,0,.48-.01,.96-.02,1.44Z"/>
      <path class="cls-2" d="M78.34,37.96c-.45,.48-.98,.86-1.52,1.22,0-.42,0-.84,0-1.26,0,0,0,0,0,0,.51,.01,1.01,.03,1.52,.04Z"/>
      <path class="cls-2" d="M48.46,53.31c.03,.82-.08,1.64,.12,2.45-2.09-1.63-4.18-3.26-6.26-4.9-.69-.54-1.35-1.11-2.03-1.66,.47,.14,.7,0,.62-.52-.03-.16,0-.33,0-.49,0,0,0,0,0,0,.81,0,1.62,0,2.42,0,0,.73,.01,1.45,0,2.18-.01,.4,.14,.54,.53,.53,.73-.02,1.45,0,2.18,0,0,.66,0,1.31,0,1.97,0,.33,.13,.46,.46,.46,.66-.01,1.31,0,1.97,0Z"/>
      <path class="cls-2" d="M56.3,53.31c.66,0,1.31,0,1.97,0,.33,0,.46-.13,.46-.46-.01-.66,0-1.31,0-1.97,.73,0,1.46-.01,2.18,0,.4,.01,.54-.14,.53-.53-.02-.73,0-1.45,0-2.18,.81,0,1.62,0,2.42,0h0c.1,.34-.25,.83,.33,1.01-1.85,1.48-3.69,2.97-5.54,4.45-.91,.72-1.83,1.41-2.75,2.12,.61-.74,.36-1.62,.41-2.45Z"/>
      <path class="cls-2" d="M38.2,45.76c.9,0,1.81,0,2.71,0,0,.81,0,1.62,0,2.42,0,0,0,0,0,0-.56,.03-1.13-.11-1.67,.17-.51-.33-1-.69-1.42-1.13,.29-.04,.39-.21,.38-.48-.01-.33,0-.65,0-.98h0Z"/>
      <path class="cls-2" d="M63.86,48.18c0-.81,0-1.62,0-2.42,.9,0,1.81,0,2.71,0,0,0,0,0,0,0,.14,.4-.37,1.08,.49,1.17-.56,.53-1.17,1.01-1.82,1.43-.44-.25-.92-.16-1.38-.18h0Z"/>
      <path class="cls-3" d="M27.93,39.36c0-.48,.01-.96,.02-1.44,.9,0,1.81,0,2.71,0,0,.66,0,1.31,0,1.97,0,.75-.32,.96-1,.63-.17-.08-.31-.21-.51-.19-.07-.05-.13-.1-.2-.15-.02-.3-.19-.43-.49-.39-.12,0-.18-.08-.23-.18,0-.2-.11-.28-.31-.26h0Z"/>
      <path class="cls-3" d="M76.82,37.92c0,.42,0,.84,0,1.26h-.02c-.53,.21-1.01,.46-1.26,1.01-.06,.05-.13,.1-.19,.15q-1.23,.35-1.23-1.01c0-.47,0-.94,0-1.41,.9,0,1.81,0,2.71,0Z"/>
      <path class="cls-3" d="M38.2,45.76c0,.33-.01,.65,0,.98,0,.28-.1,.45-.38,.48,0,0-.04,0-.04,0v-.03c-.02-.22-.15-.3-.36-.26-.26-.14-.5-.3-.67-.55,.07-.21-.18-.31-.18-.62h1.63Z"/>
      <path class="cls-3" d="M67.06,46.93c-.87-.09-.35-.77-.49-1.17,.57,.09,1.18-.2,1.73,.17-.35,.4-.79,.7-1.23,.99Z"/>
      <path class="cls-3" d="M39.24,48.35c.53-.28,1.11-.14,1.67-.17,0,.16-.02,.33,0,.49,.09,.53-.14,.66-.62,.52-.39-.23-.75-.51-1.06-.84Z"/>
      <path class="cls-3" d="M63.85,48.18c.47,.01,.95-.07,1.38,.18-.3,.35-.66,.62-1.06,.84-.58-.19-.23-.67-.33-1.02Z"/>
      <path class="cls-2" d="M75.54,40.19c.25-.55,.73-.81,1.26-1-.36,.41-.79,.74-1.26,1Z"/>
      <path class="cls-2" d="M51.61,57.83c.42-.16,.84-.16,1.25,0-.42,.24-.84,.24-1.25,0Z"/>
      <path class="cls-2" d="M54.6,56.76c.16-.45,.49-.7,.97-.75-.27,.32-.57,.6-.97,.75Z"/>
      <path class="cls-2" d="M48.91,56.01c.47,.05,.79,.3,.96,.75-.39-.16-.7-.42-.96-.75Z"/>
      <path class="cls-2" d="M50.4,57.18c.38-.01,.61,.19,.77,.51-.32-.07-.6-.21-.77-.51Z"/>
      <path class="cls-2" d="M53.59,57.55c.03-.3,.2-.41,.49-.37-.09,.22-.28,.31-.49,.37Z"/>
      <path class="cls-2" d="M28.45,39.8c.3-.04,.46,.09,.49,.39-.21-.07-.39-.19-.49-.39Z"/>
      <path class="cls-2" d="M37.43,46.92c.21-.04,.33,.04,.35,.26-.18,0-.27-.12-.35-.26Z"/>
      <path class="cls-2" d="M48.58,55.76c.19-.03,.3,.05,.32,.24-.17,0-.27-.09-.32-.24Z"/>
      <path class="cls-2" d="M55.58,56c.02-.2,.13-.28,.32-.25-.05,.15-.16,.24-.32,.25Z"/>
      <path class="cls-2" d="M49.87,56.75c.2-.03,.3,.05,.31,.25-.17,0-.27-.1-.31-.25Z"/>
      <path class="cls-2" d="M53.16,57.75c.06-.16,.18-.18,.32-.15-.08,.12-.17,.2-.32,.15Z"/>
      <path class="cls-2" d="M27.92,39.36c.19-.02,.3,.06,.31,.26-.16-.01-.26-.11-.31-.26Z"/>
    </g>
  </g>
</svg>