<?xml version="1.0" encoding="UTF-8"?>
<svg id="Layer_1" data-name="Layer 1" xmlns="http://www.w3.org/2000/svg" viewBox="0 0 104 105.5">
  <defs>
    <style>
      .cls-1 {
        fill: #fbfcfd;
      }

      .cls-2 {
        fill: #116855;
      }
    </style>
  </defs>
  <circle class="cls-2" cx="52.5" cy="51.5" r="52"/>
  <g id="MmQKLz.tif">
    <path class="cls-1" d="M82.02,51.34c0,8.23,0,16.47,0,24.7,0,2.82-1.74,4.57-4.57,4.57-16.46,0-32.92,0-49.39,0-2.76,0-4.54-1.77-4.54-4.54,0-16.49,0-32.99,0-49.48,0-2.7,1.8-4.51,4.5-4.51,16.49,0,32.97,0,49.46,0,2.76,0,4.54,1.78,4.54,4.55,0,8.23,0,16.47,0,24.7Zm-27.26-3.61c-.05-.02-.1-.04-.15-.07,0-.99-.02-1.98,0-2.97,.01-.5-.14-.68-.66-.67-2.32,.02-4.65,.03-6.97,0-.57,0-.68,.22-.68,.73,.01,8.84,.01,17.67,0,26.51,0,.63,.23,.78,.8,.77,2.35-.02,4.69-.03,7.04,0,.65,0,.82-.2,.82-.83-.02-4.09-.03-8.18,0-12.27,0-1.25,0-2.51,.25-3.76,.41-1.96,1.3-3.53,3.4-3.99,2.87-.62,5.18,.18,5.83,3.45,.21,1.05,.27,2.11,.27,3.18,0,4.48,.01,8.96,0,13.44,0,.6,.17,.8,.78,.79,2.32-.03,4.65-.04,6.97,0,.71,.01,.9-.2,.89-.9-.03-5.13,0-10.26-.02-15.4,0-1.79-.16-3.58-.59-5.33-.61-2.46-1.75-4.56-4.06-5.83-1.48-.81-3.09-1.11-4.74-1.21-3.26-.19-6.13,.69-8.34,3.23-.31,.36-.57,.75-.86,1.13Zm-22.56,10.26c0,4.43,.01,8.86-.01,13.29,0,.58,.17,.74,.74,.73,2.42-.03,4.84-.03,7.26,0,.55,0,.69-.2,.69-.72-.01-8.83-.01-17.67,0-26.5,0-.62-.21-.77-.8-.76-2.32,.03-4.65,.04-6.97,0-.72-.01-.94,.15-.94,.91,.04,4.36,.02,8.71,.02,13.07Zm9.35-22.79c0-2.79-2.23-5.04-5.02-5.03-2.74,0-4.99,2.25-5,4.99-.01,2.79,2.23,5.07,4.99,5.07,2.78,0,5.02-2.24,5.03-5.03Z"/>
  </g>
</svg>